<svg xmlns="http://www.w3.org/2000/svg" xmlns:xlink="http://www.w3.org/1999/xlink" style="shape-rendering:geometricPrecision;fill-rule:evenodd;clip-rule:evenodd" height="420" width="480" xml:space="preserve"><defs><use transform="translate(90 70)" xlink:href="#a" style="stroke-width:12" id="b"/><use transform="matrix(.65 0 0 .65 40 125)" xlink:href="#a" style="stroke-width:18" id="c"/><path d="M338 263c0-31-26-57-58-57-10 0-19 2-28 7-7-44-45-78-91-78-52 0-94 41-94 93 0 8 1 15 3 23-2-1-5-1-8-1-20 0-36 16-36 35 0 20 16 36 36 36h218c32 0 58-26 58-58zm-87-12c2-8 3-15 3-23 0-5-1-10-2-15" id="a" style="stroke:inherit;stroke-linecap:round;stroke-linejoin:round"/><g id="d" style="display:initial!important"><path style="opacity:.2;stroke:#fff;stroke-width:12" d="M40 165h420"/><path style="opacity:.3;stroke:#fff;stroke-width:12" d="M10 190h440"/><path style="opacity:.4;stroke:#fff;stroke-width:12" d="M20 215h450"/><path style="opacity:.5;stroke:#fff;stroke-width:12" d="M10 240h445"/><path style="opacity:.6;stroke:#fff;stroke-width:12" d="M30 265h435"/><path style="opacity:.7;stroke:#fff;stroke-width:12" d="M20 290h430"/><path style="opacity:.8;stroke:#fff;stroke-width:12" d="M40 315h430"/><path style="opacity:.9;stroke:#fff;stroke-width:12" d="M20 340h410"/></g></defs><use transform="translate(0 -70)" xlink:href="#b" style="stroke:#fff;fill:#e6e6e6"/><use transform="translate(0 -70)" xlink:href="#c" style="stroke:#fff;fill:#e6e6e6"/><use xlink:href="#d"/></svg>