<svg xmlns="http://www.w3.org/2000/svg" xmlns:xlink="http://www.w3.org/1999/xlink" style="shape-rendering:geometricPrecision;fill-rule:evenodd;clip-rule:evenodd" height="420" width="480" xml:space="preserve"><defs><path d="m376 338 44 44zm-58-41zM175 137c2 2 2 6 0 8s-6 2-8 0l-63-63c-2-2-2-6 0-8 3-2 6-2 9 0l62 63zm251 67c4 0 6 3 6 6s-2 6-6 6h-88c-4 0-6-3-6-6s2-6 6-6h88zm-284 0c4 0 6 3 6 6s-2 6-6 6H54c-4 0-6-3-6-6s2-6 6-6h88zM367 74c3-2 6-2 9 0 2 2 2 6 0 8l-63 63c-2 2-6 2-8 0s-2-6 0-8l62-63zM168 274zm-16.622 34.075zm215-53c4 1 5 4 4 7-2 3-5 5-8 4l-33-14c-3-1-4-5-3-8s5-4 8-3l32 14zm-213-89c3 2 4 5 3 8s-5 4-8 3l-33-14c-3-1-4-4-3-7s5-5 8-3l33 13zm134-83c1-3 4-4 7-3s5 5 3 8l-13 33c-1 3-5 4-8 3s-4-5-3-8l14-33zm-89 214zm164-144c3-2 6 0 8 3 1 3-1 6-4 7l-32 14c-3 1-7 0-8-3s0-7 3-8l33-13zm-214.152 88.041zm149 89zm-88-214c1 3 0 7-3 8s-7 0-8-3l-13-33c-2-3 0-6 3-8 3-1 6 0 8 4l13 32zm26-93c0-4 3-6 6-6s6 2 6 6v88c0 3-3 6-6 6s-6-3-6-6v-88zm0 284zm12 48zm-6-72zm29-5zm-77-37zm114 1c5-10 8-21 8-33 0-41-33-74-74-74s-74 33-74 74v10c8.513.651 6.558-.048 11.927 2.041-7.032-106.324 152.699-95.116 118.01 14.073z" id="a" style="fill:#fff"/><path d="M340 0v2c-2 33-17 58-38 74s-49 23-76 23h-1c-20 27-56 44-96 51-43 8-91 5-129-6v-25c36 12 83 16 125 8 37-7 69-22 84-46 2-3 6-6 11-5h6c23 0 45-6 62-19 16-12 27-31 28-56V0h24zm-95 0c2 8 2 15 1 22-1 14-6 25-14 34-8 8-18 14-30 18-8 3-16 4-25 4-17 19-41 31-69 36-35 7-75 6-108 0V90c31 6 70 8 103 1 25-5 46-15 59-32 2-3 6-5 11-5 7 1 15 0 22-3 8-2 15-6 19-11 5-5 8-12 9-20 0-6 0-12-3-20h25zm-93 0c1 3 2 6 2 8 2 12 0 23-6 34s-16 20-30 28h-1C92 83 54 90 0 84V60c50 6 85 1 106-11h1c10-5 17-12 21-18 3-6 4-13 3-18s-3-9-6-13h27z" id="c" style="fill:#fff;opacity:.5"/><g id="b" style="display:initial!important"><path d="M395 337c0-13-5-24-13-33-9-8-20-13-33-13-4 0-8 0-12 1-2 1-5 2-7 3v2c1 3 1 5 1 8s-1 7-1 11c-1 4-1 7-2 11-1 3-4 5-7 4-4-1-5-4-5-7 1-3 2-6 2-10 1-3 1-6 1-9v-7c-1-2-1-4-1-6-3-19-13-35-27-47s-31-19-51-19c-8 0-15 1-22 3-3-3-6-6-10-9 10-4 21-6 32-6 23 0 43 8 59 22 14 12 24 28 29 47 2-1 4-2 6-2 5-2 10-2 15-2 16 0 30 6 41 17 10 10 17 25 17 41s-7 30-17 41c-11 10-25 17-41 17H151c-11 0-20-4-27-11-6-6-10-13-11-21h12c1 5 4 9 7 12 5 5 11 8 19 8h198c13 0 24-5 33-13 8-9 13-20 13-33zm-77-45z" style="fill:#fff"/><path d="M271 307c0-9-3-17-9-23s-14-10-23-10c-3 0-6 1-9 1-1 1-2 1-4 2v1c1 1 1 3 1 5 0 3 0 6-1 8 0 3-1 6-1 9-1 3-4 5-8 4-3-1-5-4-4-7 1-2 1-5 1-7 1-2 1-5 1-7v-5c0-1-1-3-1-4-2-14-9-26-19-34-10-9-23-14-37-14-15 0-30 7-40 17s-16 24-16 40v7c0 2 1 5 1 7 1 3-1 6-4 7h-7c-5 0-10 2-13 5s-5 8-5 13 2 9 5 12c3 4 8 6 13 6h147c9 0 17-4 23-10s9-14 9-23zm-1-32c8 8 13 20 13 32s-5 23-13 31-19 13-31 13H92c-8 0-16-3-21-8-6-6-9-13-9-21 0-9 3-16 9-21 5-5 12-9 19-9v-9c0-19 7-36 20-48 12-13 29-20 48-20 17 0 33 6 45 16 10 9 18 20 21 34 1-1 2-1 4-1 3-1 7-2 11-2 12 0 23 5 31 13z" style="fill:#fff"/></g></defs><use xlink:href="#a"/><use xlink:href="#b"/><use xlink:href="#c"/></svg>