<svg xmlns="http://www.w3.org/2000/svg" xmlns:xlink="http://www.w3.org/1999/xlink" style="shape-rendering:geometricPrecision;fill-rule:evenodd;clip-rule:evenodd" height="420" width="480" xml:space="preserve"><defs><g id="a" style="display:initial!important"><path d="m416 59-7 23m15-8-23-6" style="stroke:#fff;stroke-width:8.85827;stroke-linecap:round;stroke-linejoin:round;fill:#fff"/><path d="m90 105-12 45m29-16-45-12" style="stroke:#fff;stroke-width:5.90551;stroke-linecap:round;stroke-linejoin:round;fill:#fff"/><path d="m282 13-12 45m28-16-45-12" style="stroke:#fff;stroke-width:2.95276;stroke-linecap:round;stroke-linejoin:round;fill:#fff"/><path d="m59 58-6 23m14-9-23-6" style="stroke:#fff;stroke-width:8.85827;stroke-linecap:round;stroke-linejoin:round;fill:#fff"/><path d="m91 332-12 45m28-17-45-12" style="stroke:#fff;stroke-width:5.90551;stroke-linecap:round;stroke-linejoin:round;fill:#fff"/><path d="m419 135-12 45m29-16-45-12" style="stroke:#fff;stroke-width:2.95276;stroke-linecap:round;stroke-linejoin:round;fill:#fff"/></g><g id="b" style="display:initial!important"><path d="M253 75h-13c-37 0-71 15-96 39-24 25-39 59-39 96s15 71 39 96c15 15 34 26 55 33 0 5 1 9 3 13-25-7-48-20-66-38-27-27-43-63-43-104s16-77 43-104 63-43 104-43h7c3 0 5 0 8 1 6 1 10 3 13 7 2 3 4 6 4 10 0 3 0 7-1 10-2 3-4 6-7 7-14 11-25 27-33 46-8 20-13 42-13 66 0 20 3 39 9 56-3 3-6 5-9 9-8-20-12-42-12-65 0-26 5-50 14-70 9-22 22-39 38-51l1-1s0-1 1-1v-5c0-1 0-3-1-4s-3-2-6-3z" style="fill:#fff"/><use xlink:href="#a"/></g><path d="M309 269c3 1 4 5 3 8-2 3-5 4-8 2-5-2-11-5-18-6-6-1-13-1-22 1h-1c-7 1-19 7-28 17-9 11-16 25-13 45 1 1 1 2 1 3 2 11 9 22 18 30s21 12 35 13h102c15-2 29-9 39-20 10-10 17-24 20-38 3-15 3-31-3-45-5-14-15-27-31-37-11-7-20-9-27-10l-2-1c-3 0-5-3-4-7 0-3 3-5 7-4h1c7 1 16 3 27 9 9-7 16-15 21-23 9-14 12-30 10-44-1-15-7-29-15-40-6-8-13-15-20-20-4-2-9-5-14-6-14-6-32-7-48-3-16 5-32 15-43 33-2 3-3 5-4 8 5-2 10-2 15-2 8 1 15 3 22 5 3 1 4 4 3 7-1 4-4 5-7 4-6-2-12-4-19-4-6 0-14 1-23 5-16 6-27 15-34 26-6 9-9 19-10 30-1 10 1 20 4 29 5 11 12 21 21 28 9-2 17-2 25 0 7 1 14 4 20 7zm127-57c-5 8-12 16-21 24 15 10 25 24 30 39 7 16 7 34 4 51-4 17-12 32-24 44-12 13-28 21-46 24H276c-17-1-31-7-42-16-12-9-20-23-23-37v-4c-4-23 4-41 15-53 8-9 17-15 24-18-7-8-13-17-17-27-5-11-7-23-6-35s5-25 12-35c8-13 20-23 38-30 2-7 5-13 9-19 13-21 31-33 50-38 19-6 39-4 56 3 5 2 10 4 15 7 9 6 17 14 24 23 9 13 15 29 17 46s-1 34-12 51z" id="c" style="fill:#fff"/></defs><use xlink:href="#b"/><use xlink:href="#c"/></svg>