<svg xmlns="http://www.w3.org/2000/svg" xmlns:xlink="http://www.w3.org/1999/xlink" style="shape-rendering:geometricPrecision;fill-rule:evenodd;clip-rule:evenodd" height="420" width="480" xml:space="preserve"><defs><path d="M175 137c2 2 2 6 0 8s-6 2-8 0l-63-63c-2-2-2-6 0-8 3-2 6-2 9 0l62 63zm95 5c-9-4-19-6-30-6-41 0-74 33-74 74 0 36 26 67 61 73 0-1 .577-1.891 2.404-5.362-85.79-29.35-58.977-159.759 42.655-124.759zm-128 62c4 0 6 3 6 6s-2 6-6 6H54c-4 0-6-3-6-6s2-6 6-6h88zm25 71c2-2 6-2 8 0s2 6 0 8l-62 63c-3 2-6 2-9 0-2-2-2-6 0-8l63-63zm-15-108c3 2 4 5 3 8s-5 4-8 3l-33-14c-3-1-4-4-3-7s5-5 8-3l33 13zm134-83c1-3 4-4 7-3s5 5 3 8l-13 33c-1 3-5 4-8 3s-4-5-3-8l14-33zm-89 214c1-3 5-4 8-3s4 5 3 8l-14 33c-1 3-4 4-7 3s-5-5-4-8l14-33zm-50-56c3-1 7 0 8 3s0 7-3 8l-33 14c-3 1-6-1-8-4-1-3 0-6 3-7l33-14zm61-125c1 3 0 7-3 8s-7 0-8-3l-13-33c-2-3 0-6 3-8 3-1 6 0 8 4l13 32zm26-93c0-4 3-6 6-6s6 2 6 6v88c0 3-3 6-6 6s-6-3-6-6V24z" id="a" style="fill:#fff"/><path d="M309 269c3 1 4 5 3 8-2 3-5 4-8 2-5-2-11-5-18-6-6-1-13-1-22 1h-1c-7 1-19 7-28 17-9 11-16 25-13 45 1 1 1 2 1 3 2 11 9 22 18 30s21 12 35 13h102c15-2 29-9 39-20 10-10 17-24 20-38 3-15 3-31-3-45-5-14-15-27-31-37-11-7-20-9-27-10l-2-1c-3 0-5-3-4-7 0-3 3-5 7-4h1c7 1 16 3 27 9 9-7 16-15 21-23 9-14 12-30 10-44-1-15-7-29-15-40-6-8-13-15-20-20-4-2-9-5-14-6-14-6-32-7-48-3-16 5-32 15-43 33-2 3-3 5-4 8 5-2 10-2 15-2 8 1 15 3 22 5 3 1 4 4 3 7-1 4-4 5-7 4-6-2-12-4-19-4-6 0-14 1-23 5-16 6-27 15-34 26-6 9-9 19-10 30-1 10 1 20 4 29 5 11 12 21 21 28 9-2 17-2 25 0 7 1 14 4 20 7zm127-57c-5 8-12 16-21 24 15 10 25 24 30 39 7 16 7 34 4 51-4 17-12 32-24 44-12 13-28 21-46 24H276c-17-1-31-7-42-16-12-9-20-23-23-37v-4c-4-23 4-41 15-53 8-9 17-15 24-18-7-8-13-17-17-27-5-11-7-23-6-35s5-25 12-35c8-13 20-23 38-30 2-7 5-13 9-19 13-21 31-33 50-38 19-6 39-4 56 3 5 2 10 4 15 7 9 6 17 14 24 23 9 13 15 29 17 46s-1 34-12 51z" id="b" style="fill:#fff"/><path d="M340 0v2c-2 33-17 58-38 74s-49 23-76 23h-1c-20 27-56 44-96 51-43 8-91 5-129-6v-25c36 12 83 16 125 8 37-7 69-22 84-46 2-3 6-6 11-5h6c23 0 45-6 62-19 16-12 27-31 28-56V0h24zm-95 0c2 8 2 15 1 22-1 14-6 25-14 34-8 8-18 14-30 18-8 3-16 4-25 4-17 19-41 31-69 36-35 7-75 6-108 0V90c31 6 70 8 103 1 25-5 46-15 59-32 2-3 6-5 11-5 7 1 15 0 22-3 8-2 15-6 19-11 5-5 8-12 9-20 0-6 0-12-3-20h25zm-93 0c1 3 2 6 2 8 2 12 0 23-6 34s-16 20-30 28h-1C92 83 54 90 0 84V60c50 6 85 1 106-11h1c10-5 17-12 21-18 3-6 4-13 3-18s-3-9-6-13h27z" id="c" style="fill:#fff;opacity:.5"/></defs><use xlink:href="#a"/><use xlink:href="#b"/><use xlink:href="#c"/></svg>