<svg xmlns="http://www.w3.org/2000/svg" xmlns:xlink="http://www.w3.org/1999/xlink" style="shape-rendering:geometricPrecision;fill-rule:evenodd;clip-rule:evenodd" height="420" width="480" xml:space="preserve"><defs><g id="a" style="display:initial!important"><path d="M395 337c0-13-5-24-13-33-9-8-20-13-33-13-4 0-8 0-12 1-2 1-5 2-7 3v2c1 3 1 5 1 8s-1 7-1 11c-1 4-1 7-2 11-1 3-4 5-7 4-4-1-5-4-5-7 1-3 2-6 2-10 1-3 1-6 1-9v-7c-1-2-1-4-1-6-3-19-13-35-27-47s-31-19-51-19c-8 0-15 1-22 3-3-3-6-6-10-9 10-4 21-6 32-6 23 0 43 8 59 22 14 12 24 28 29 47 2-1 4-2 6-2 5-2 10-2 15-2 16 0 30 6 41 17 10 10 17 25 17 41s-7 30-17 41c-11 10-25 17-41 17H151c-11 0-20-4-27-11-6-6-10-13-11-21h12c1 5 4 9 7 12 5 5 11 8 19 8h198c13 0 24-5 33-13 8-9 13-20 13-33zm-77-45z" style="fill:#fff"/><path d="M271 307c0-9-3-17-9-23s-14-10-23-10c-3 0-6 1-9 1-1 1-2 1-4 2v1c1 1 1 3 1 5 0 3 0 6-1 8 0 3-1 6-1 9-1 3-4 5-8 4-3-1-5-4-4-7 1-2 1-5 1-7 1-2 1-5 1-7v-5c0-1-1-3-1-4-2-14-9-26-19-34-10-9-23-14-37-14-15 0-30 7-40 17s-16 24-16 40v7c0 2 1 5 1 7 1 3-1 6-4 7h-7c-5 0-10 2-13 5s-5 8-5 13 2 9 5 12c3 4 8 6 13 6h147c9 0 17-4 23-10s9-14 9-23zm-1-32c8 8 13 20 13 32s-5 23-13 31-19 13-31 13H92c-8 0-16-3-21-8-6-6-9-13-9-21 0-9 3-16 9-21 5-5 12-9 19-9v-9c0-19 7-36 20-48 12-13 29-20 48-20 17 0 33 6 45 16 10 9 18 20 21 34 1-1 2-1 4-1 3-1 7-2 11-2 12 0 23 5 31 13z" style="fill:#fff"/></g><g id="b" style="display:initial!important;fill:#fff"><path d="M480 242H0v-11h480v11z" opacity=".1"/><path d="M480 263H0v-11h480v11z" opacity=".2"/><path d="M480 284H0v-11h480v11z" opacity=".3"/><path d="M480 305H0v-11h480v11z" opacity=".4"/><path d="M480 326H0v-11h480v11z" opacity=".5"/><path d="M480 347H0v-11h480v11z" opacity=".6"/><path d="M480 368H0v-11h480v11z" opacity=".7"/><path d="M480 389H0v-11h480v11z" opacity=".8"/><path opacity=".9" d="M480 410H0v-11h480z"/></g><path d="M480 56c-5 0-10 1-15 1l15 12v17c-2-2-4-4-7-5-9-8-18-15-28-22-7 0-15 1-23 2 10 7 20 14 31 21 9 7 18 13 27 20v9c-4 1-10 1-13-2-11-7-22-15-33-23l-33-24c-8 1-17 2-25 3 12 7 24 15 36 22 11 8 23 16 35 23 3 2 3 6-2 8-4 1-11 1-15-1-12-8-25-17-38-25s-27-17-40-25c-9 0-17 1-26 2 14 8 27 16 41 24s27 16 41 24c4 3 3 6-2 8-4 2-11 2-15 0-15-9-30-18-46-27-15-9-30-18-46-27-9 1-19 2-29 3 17 8 33 17 49 26 16 8 31 17 47 25 4 2 4 6-1 8-5 3-13 3-17 0-18-9-35-18-53-28-18-9-36-19-54-29-10 1-21 2-31 3 19 9 38 18 56 28 18 9 37 18 55 27 4 2 4 6-1 8-6 3-14 3-19 1-20-10-40-20-61-30-21-11-42-21-63-31-11 1-23 2-34 3 22 10 44 20 65 29 22 10 43 19 63 29 5 2 5 6-1 9-5 3-14 3-19 1-24-11-47-21-71-32-25-11-49-22-74-33-12 1-25 2-37 3 26 11 51 21 76 32 24 10 49 20 73 30 5 2 5 6-1 9s-16 4-22 2c-26-11-54-23-82-34s-57-23-87-35L0 97V49l15-1c-5-2-10-4-15-7V21l7 3c17 7 34 15 51 23 15-1 29-1 43-2-15-7-31-14-46-22C39 15 23 8 7 0h41c15 8 31 15 46 22 15 8 30 15 45 22 13 0 26-1 39-1-13-7-27-14-40-21-14-7-28-15-42-22h36c13 7 27 14 40 21l39 21c12-1 24-1 36-1-12-7-24-14-36-20-11-7-23-14-35-21h31c12 7 23 13 35 20 11 7 22 13 34 20 11-1 22-1 32-1-10-7-20-13-30-19-10-7-21-13-31-20h27c10 6 20 13 30 19 11 6 20 13 30 19 10 0 21-1 30-1-8-6-17-12-26-18-9-7-18-13-27-19h24c9 6 18 12 26 18l27 18h27c-7-6-15-12-23-18S377 6 369 0h22c7 6 15 12 22 17 8 6 16 12 23 18 9 0 17-1 26-1-7-6-14-11-20-17-7-6-14-11-20-17h19c7 6 13 11 20 17 6 5 13 11 19 16v23zM0 104c25 9 50 19 75 28 28 11 56 21 84 32 6 2 6 7-1 10s-17 4-24 2c-30-12-62-24-95-36-13-5-26-9-39-14v-22zm0 40c32 11 63 21 94 32 7 2 7 7-1 11-7 3-18 4-25 2-23-8-45-15-68-23v-22zM480 10c-3-4-7-7-10-10h10v10zM0 182c8 3 15 5 23 7 7 3 7 8-1 12-6 3-15 4-22 4v-23z" id="c" style="fill:#fff;opacity:.5"/></defs><use xlink:href="#a"/><use xlink:href="#b"/><use xlink:href="#c"/></svg>