<svg xmlns="http://www.w3.org/2000/svg" xmlns:xlink="http://www.w3.org/1999/xlink" style="shape-rendering:geometricPrecision;fill-rule:evenodd;clip-rule:evenodd" height="420" width="480" xml:space="preserve"><defs><path style="stroke-width:12;stroke-linecap:round;stroke:#fff" d="m117 400 6-55m36 55 6-55" id="b"/><path d="M376 338c2 2 2 6 0 8-3 2-6 2-9 0l-31-32c3-2 5-6 7-9l33 33zM140 118l-36-36c-2-2-2-6 0-8 3-2 6-2 9 0l42 42c-5 1-10 1-15 2zm286 86c4 0 6 3 6 6s-2 6-6 6h-87c-2-3-4-5-7-8 1-2 3-4 6-4h88zM367 74c3-2 6-2 9 0 2 2 2 6 0 8l-63 63c-2 2-6 2-8 0s-2-6 0-8l62-63zm-2 182c4 1 5 4 4 7-2 3-5 5-8 4l-5-2v-2c0-4 0-8-1-12l10 5zM286 84c1-3 4-4 7-3s5 5 3 8l-13 33c-1 3-5 4-8 3s-4-5-3-8l14-33zm75 70c3-2 6 0 8 3 1 3-1 6-4 7l-32 14c-3 1-7 0-8-3s0-7 3-8l33-13zm-153-37c1 3 0 7-3 8-3-1-5-2-8-3l-13-33c-2-3 0-6 3-8 3-1 6 0 8 4l13 32zm26-93c0-4 3-6 6-6s6 2 6 6v88c0 3-3 6-6 6s-6-3-6-6V24zm79 171c-7-34-37-59-73-59-5 0-10 0-14 1 4 3 8 7 12 10h2c27 0 50 18 59 43 5 1 9 3 14 5z" id="a" style="fill:#fff"/><g id="c" style="display:initial!important"><path d="M332 263c0-14-6-27-15-36-10-9-23-15-37-15-4 0-9 0-13 1-3 1-5 2-8 3v4c0 3 1 5 1 8 0 4-1 8-1 12l-3 12c0 3-4 5-7 4-3 0-5-4-4-7s2-7 2-10c0-4 1-8 1-11s0-5-1-7v-7c-4-21-15-40-30-53s-35-20-56-20c-25 0-46 9-62 25s-26 38-26 62c0 3 1 7 1 11 0 3 1 7 2 10s-1 7-4 7c-1 1-2 1-3 0h-7c-8 0-16 3-21 8-6 6-9 13-9 21 0 9 3 16 9 21 5 6 13 9 21 9h61l-6 12H62c-12 0-22-5-30-12-7-8-12-18-12-30 0-11 5-22 12-29 8-8 18-12 30-12h1c0-1-1-3-1-4 0-4-1-8-1-12 0-28 12-52 29-70 18-18 43-29 71-29 24 0 46 9 64 23 15 14 27 32 32 52 2-1 5-1 7-2 6-1 11-2 16-2 18 0 34 7 45 19 12 11 19 27 19 44 0 18-7 34-19 45-11 12-27 19-45 19H171l10-12h99c14 0 27-6 37-15 9-9 15-22 15-37z" style="fill:#fff"/><path style="fill:#fff" d="m95 398 53-105h-39l42-109h52l-42 84h43z"/></g></defs><use xlink:href="#a"/><use xlink:href="#cloud_large"/><use transform="translate(70)" xlink:href="#b"/><use xlink:href="#c"/></svg>