<svg xmlns="http://www.w3.org/2000/svg" xmlns:xlink="http://www.w3.org/1999/xlink" style="shape-rendering:geometricPrecision;fill-rule:evenodd;clip-rule:evenodd" height="420" width="480" xml:space="preserve"><defs><path style="stroke-width:12;stroke-linecap:round;stroke:#fff" d="m123 400 7-56m36 56 6-56m36 56 7-56" id="b"/><path style="stroke-width:12;stroke-linecap:round;stroke:#fff" d="m251 400 4-34m38 34 4-34" id="c"/><g id="a" style="display:initial!important"><path d="M449 201c0-13-6-25-14-33s-20-14-33-14c-4 0-8 1-11 2-3 0-5 1-8 2 1 1 1 2 1 3v7c0 4 0 8-1 12 0 3-1 7-2 11-1 3-4 5-7 4s-5-4-4-7 1-7 2-10v-16c0-2 0-4-1-6-3-19-13-36-26-48-14-11-32-18-51-18-22 0-42 9-56 23s-23 34-23 55c0 4 0 7 1 10 0 3 1 7 1 10 1 3-1 6-4 7h-3c-1 0-2-1-3-1h-3c-7 0-14 3-19 8-4 5-7 11-7 19 0 7 3 13 7 18 5 5 12 8 19 8h58c-2 4-4 8-5 12h-53c-11 0-20-5-27-11-7-7-11-17-11-27 0-11 4-21 11-27 7-7 16-12 27-12v-2c-1-4-1-8-1-12 0-25 10-47 27-64 16-16 39-26 64-26 22 0 42 8 58 22 14 12 25 28 29 46 2 0 5-1 7-2 4-1 9-1 14-1 16 0 31 6 41 17 11 10 17 25 17 41s-6 30-17 41c-3 3-7 6-11 8-5-1-11-2-17-2h-6c-1 0-1-1-1-1 10-2 20-6 27-14 8-8 14-20 14-32zm-78-45z" style="fill:#fff"/><path d="M193 147c-10-4-21-6-32-6-25 0-46 9-62 25s-26 38-26 62c0 3 1 7 1 11 0 3 1 7 2 10s-1 7-4 7c-1 1-2 1-3 0h-7c-8 0-16 3-21 8-6 6-9 13-9 21 0 9 3 16 9 21 5 6 13 9 21 9h164c-1 1-1 3-1 4 0 3 1 5 1 8H62c-12 0-22-5-30-12-7-8-12-18-12-30 0-11 5-22 12-29 8-8 18-12 30-12h1c0-1-1-3-1-4 0-4-1-8-1-12 0-28 12-52 29-70 18-18 43-29 71-29 12 0 24 2 36 7-2 3-3 7-4 11zm254 126c8 8 13 19 13 31s-5 24-13 32-19 13-32 13H302l11-12h102c9 0 18-4 23-10 6-6 10-14 10-23s-4-17-10-23c-5-6-14-10-23-10-3 0-5 1-8 1-1 1-3 1-4 2v15c-1 3-1 5-2 8s-4 5-7 4c-3 0-5-4-4-7 0-2 1-4 1-7 0-2 1-4 1-7 0-1 0-3-1-4v-5c-2-14-9-25-19-34-8-6-16-10-26-12l5-11c11 2 20 7 28 14 11 9 18 21 22 34 1 0 2-1 3-1 4-1 8-1 11-1 13 0 24 5 32 13zm-190 73c-3-1-7-3-9-6-6-5-9-13-9-21 0-7 2-13 6-18l19 1c-3 0-6 2-8 4-3 3-5 8-5 13s2 9 5 13c2 1 4 3 7 4l-6 10z" style="fill:#fff"/><path style="fill:#fff" d="m244 399 55-109h-40l43-113h55l-45 87h45z"/></g></defs><use xlink:href="#a"/><use xlink:href="#b"/><use transform="translate(50)" xlink:href="#c"/></svg>