<svg xmlns="http://www.w3.org/2000/svg" xmlns:xlink="http://www.w3.org/1999/xlink" style="shape-rendering:geometricPrecision;fill-rule:evenodd;clip-rule:evenodd" height="420" width="480" xml:space="preserve"><defs><path class="fil1 str0" d="m311 366-9 48m-14-40 37 32m-42-8 46-16m57-16-9 48m-14-40 37 32m-41-8 46-16" style="display:initial!important;stroke:#fff;stroke-width:12;stroke-linecap:round" id="d"/><path d="M447 273c8 8 13 19 13 31s-5 24-13 32-19 13-32 13H269c-9 0-16-4-21-9-6-5-9-13-9-21s3-16 9-21c5-5 11-8 19-9v-9c0-19 7-36 20-48 12-13 29-20 48-20 17 0 32 6 44 16 11 9 18 21 22 34 1 0 2-1 3-1 4-1 8-1 11-1 13 0 24 5 32 13zm1 31c0-9-4-17-10-23-5-6-14-10-23-10-3 0-5 1-8 1-1 1-3 1-4 2v15c-1 3-1 5-2 8s-4 5-7 4c-3 0-5-4-4-7 0-2 1-4 1-7 0-2 1-4 1-7 0-1 0-3-1-4v-5c-2-14-9-25-19-34-10-8-23-13-37-13-16 0-30 6-40 16s-17 25-17 40c0 3 0 5 1 7 0 3 0 5 1 7 1 3-1 7-4 7-1 1-2 1-3 0h-4c-5 0-10 2-13 5s-5 8-5 13 2 9 5 13c3 3 8 5 13 5h146c9 0 18-4 23-10 6-6 10-14 10-23z" id="c" style="fill:#fff"/><g id="a" style="display:initial!important"><path d="m416 59-7 23m15-8-23-6" style="stroke:#fff;stroke-width:8.85827;stroke-linecap:round;stroke-linejoin:round;fill:#fff"/><path d="m90 105-12 45m29-16-45-12" style="stroke:#fff;stroke-width:5.90551;stroke-linecap:round;stroke-linejoin:round;fill:#fff"/><path d="m282 13-12 45m28-16-45-12" style="stroke:#fff;stroke-width:2.95276;stroke-linecap:round;stroke-linejoin:round;fill:#fff"/><path d="m59 58-6 23m14-9-23-6" style="stroke:#fff;stroke-width:8.85827;stroke-linecap:round;stroke-linejoin:round;fill:#fff"/><path d="m91 332-12 45m28-17-45-12" style="stroke:#fff;stroke-width:5.90551;stroke-linecap:round;stroke-linejoin:round;fill:#fff"/><path d="m419 135-12 45m29-16-45-12" style="stroke:#fff;stroke-width:2.95276;stroke-linecap:round;stroke-linejoin:round;fill:#fff"/></g><g id="b" style="display:initial!important"><path d="M253 75h-13c-37 0-71 15-96 39-24 25-39 59-39 96s15 71 39 96c24 23 56 38 92 39 4 5 9 9 15 12h-11c-41 0-77-16-104-43s-43-63-43-104 16-77 43-104 63-43 104-43h7c3 0 5 0 8 1 6 1 10 3 13 7 2 3 4 6 4 10 0 3 0 7-1 10-2 3-4 6-7 7-14 11-25 27-33 46-8 20-13 42-13 66s5 46 13 66c2 5 4 9 7 14-3 3-6 7-8 11-4-7-7-14-10-21-9-20-14-44-14-70s5-50 14-70c9-22 22-39 38-51l1-1s0-1 1-1v-5c0-1 0-3-1-4s-3-2-6-3z" style="fill:#fff"/><use xlink:href="#a"/></g></defs><use xlink:href="#b"/><use xlink:href="#c"/><use xlink:href="#d"/></svg>