<?xml version="1.0" encoding="UTF-8"?>
<!DOCTYPE svg PUBLIC "-//W3C//DTD SVG 1.1//EN" "http://www.w3.org/Graphics/SVG/1.1/DTD/svg11.dtd">

<!-- @todo: check what these values do and if they are needed -->
<svg xmlns="http://www.w3.org/2000/svg" xml:space="preserve" width="480" height="420px" version="1.1"
    style="shape-rendering:geometricPrecision; fill-rule:evenodd; clip-rule:evenodd" viewBox="0 0 480 420"
    xmlns:xlink="http://www.w3.org/1999/xlink"
    >
    <defs>
        <style type="text/css">
            <![CDATA[
            .sun {fill:white;}
            .cloud {fill:white;}
            .cirrus {fill:white; opacity: 0.5;}
            .raindrop {stroke-width:12; stroke-linecap:round; stroke:white;}
            .lightning {fill: white;}
            .snowflake {stroke:white;stroke-width:12;stroke-linecap:round;}
            .haze {fill:white;}
            .moon {fill:white;}
            .stars {fill:white}
            .star1 {stroke:white;stroke-width:8.85827;stroke-linecap:round;stroke-linejoin:round}
            .star2 {stroke:white;stroke-width:5.90551;stroke-linecap:round;stroke-linejoin:round}
            .star3 {stroke:white;stroke-width:2.95276;stroke-linecap:round;stroke-linejoin:round}
            .fog {stroke: white; stroke-width: 12}

            /* Show only the picto specified in the URL fragment id. If this sprite was converted to single files via
                Inkscape command line, show the picto, even when there is no fragment id. This works, because all other
                pictos will be removed from the single file. A little bit hacky, but very usefull. */
            g:not(:target) {display: none}
            .symbol, .symbol g {display: initial !important}
            svg > g:first-of-type {display: initial}

            ]]>
        </style>

        <!-- Sun (full) -->
        <path id="sun_full" class="sun" d="M376 338c2,2 2,6 0,8 -3,2 -6,2 -9,0l-62 -63c-2,-2 -2,-6 0,-8 2,-2 6,-2 8,0l63 63zm-201 -201c2,2 2,6 0,8 -2,2 -6,2 -8,0l-63 -63c-2,-2 -2,-6 0,-8 3,-2 6,-2 9,0l62 63zm251 67c4,0 6,3 6,6 0,3 -2,6 -6,6l-88 0c-4,0 -6, -3 -6,-6 0,-3 2,-6 6,-6l88 0zm-284 0c4,0 6,3 6,6 0,3 -2,6 -6,6l-88 0c-4,0 -6,-3 -6,-6 0,-3 2,-6 6,-6l88 0zm225 -130c3,-2 6,-2 9,0 2,2 2,6 0,8l-63 63c-2,2 -6,2 -8,0 -2,-2 -2,-6 0,-8l62 -63zm-200 201c2,-2 6,-2 8,0 2,2 2,6 0,8l-62 63c-3,2 -6,2 -9,0 -2,-2 -2,-6 0,-8l63 -63zm198 -19c4,1 5,4 4,7 -2,3 -5,5 -8,4l-33 -14c-3,-1 -4,-5 -3,-8 1,-3 5,-4 8,-3l32 14zm-213 -89c3,2 4,5 3,8 -1,3 -5,4 -8,3l-33 -14c-3,-1 -4,-4 -3,-7 1,-3 5,-5 8, -3l33 13zm134 -83c1,-3 4,-4 7,-3 3,1 5,5 3,8l-13 33c-1,3 -5,4 -8,3 -3,-1 -4,-5 -3,-8l14 -33zm-89 214c1,-3 5, -4 8,-3 3,1 4,5 3,8l-14 33c-1,3 -4,4 -7,3 -3,-1 -5,-5 -4,-8l14 -33zm164 -144c3,-2 6,0 8,3 1,3 -1,6 -4,7l-32 14c-3,1 -7,0 -8,-3 -1,-3 0,-7 3,-8l33 -13zm-214 88c3,-1 7,0 8,3 1,3 0,7 -3,8l-33 14c-3,1 -6,-1 -8,-4 -1,-3 0,-6 3,-7l33 -14zm149 89c2,3 0,7 -3,8 -3,1 -6,0 -7,-3l-14 -33c-1,-3 0,-7 3,-8 3,-1 7,0 8,3l13 33zm-88 -214c1,3 0,7 -3,8 -3,1 -7,0 -8,-3l-13 -33c-2,-3 0,-6 3,-8 3,-1 6,0 8,4l13 32zm26 -93c0,-4 3,-6 6,-6 3,0 6,2 6,6l0 88c0,3 -3,6 -6,6 -3,0 -6,-3 -6,-6l0 -88zm0 284c0,-3 3,-6 6,-6 3,0 6,3 6,6l0 88c0,4 -3,6 -6,6 -3,0 -6,-2 -6 -6l0 -88zm6 -24c41,0 74,-33 74,-74 0,-41 -33,-74 -74,-74 -41,0 -74,33 -74,74 0,41 33,74 74,74z" />

        <!-- Sun (3 quarters visible) -->
        <path id="sun_3_quarter" class="sun" d="M175 137c2,2 2,6 0,8 -2,2 -6,2 -8,0l-63 -63c-2,-2 -2,-6 0,-8 3,-2 6,-2 9,0l62 63zm-33 67c4,0 6,3 6,6 0,3 -2,6 -6,6l-88 0c-4,0 -6,-3 -6,-6 0,-3 2,-6 6,-6l88 0zm225 -130c3,-2 6,-2 9,0 2,2 2,6 0,8l-63 63c-2,2 -6,2 -8,0 -2,-2 -2,-6 0,-8l62 -63zm-200 201c2,-2 6,-2 8,0 2,2 2,6 0,8l-62 63c-3,2 -6,2 -9,0 -2,-2 -2,-6 0,-8l63 -63zm-15 -108c3,2 4,5 3,8 -1,3 -5,4 -8,3l-33 -14c-3,-1 -4,-4 -3,-7 1,-3 5,-5 8,-3l33 13zm134 -83c1,-3 4,-4 7,-3 3,1 5,5 3,8l-13 33c-1,3 -5,4 -8,3 -3,-1 -4,-5 -3,-8l14 -33zm-89 214c1,-3 5,-4 8,-3 3,1 4,5 3,8l-14 33c-1,3 -4,4 -7,3 -3,-1 -5,-5 -4,-8l14 -33zm164 -144c3,-2 6,0 8,3 1,3 -1,6 -4,7l-32 14c-3,1 -7,0 -8,-3 -1,-3 0,-7 3,-8l33 -13zm-214 88c3,-1 7,0 8,3 1,3 0,7 -3,8l-33 14c-3,1 -6,-1 -8,-4 -1,-3 0,-6 3,-7l33 -14zm61 -125c1,3 0,7 -3,8 -3,1 -7,0 -8,-3l-13 -33c-2,-3 0,-6 3,-8 3,-1 6,0 8,4l13 32zm26 -93c0,-4 3,-6 6,-6 3,0 6,2 6,6l0 88c0,3 -3,6 -6,6 -3,0 -6,-3 -6,-6l0 -88zm6 260c9,0 18,-1 27,-5 0,-18 7,-35 20,-47 7,-8 17,-14 27,-17 0,-2 0,-3 0,-5 0,-41 -33,-74 -74,-74 -41,0 -74,33 -74,74 0,41 33,74 74,74z"/>

        <!-- Sun (half visible) -->
        <path id="sun_half" class="sun" d="M 376 338 c 2 2 2 6 0 8 c -3 2 -6 2 -9 0 l -40 -40 c 3 -3 5 -6 7 -10 l 42 42 z m -57 -41 l 13 13 z m -142 -155 z m -26 -13 l -47 -47 c -2 -2 -2 -6 0 -8 c 3 -2 6 -2 9 0 l 54 55 c -2 0 -4 0 -6 0 c -4 0 -7 0 -10 0 z m 275 75 c 4 0 6 3 6 6 c 0 3 -2 6 -6 6 l -88 0 c -4 0 -6 -3 -6 -6 c 0 -3 2 -6 6 -6 l 88 0 z m -59 -130 c 3 -2 6 -2 9 0 c 2 2 2 6 0 8 l -63 63 c -2 2 -6 2 -8 0 c -2 -2 -2 -6 0 -8 l 62 -63 z m -2 182 c 4 1 5 4 4 7 c -2 3 -5 5 -8 4 l -17 -8 c -1 -4 -2 -9 -3 -13 l 24 10 z m -34 -2 Z Z M 286 84 c 1 -3 4 -4 7 -3 c 3 1 5 5 3 8 l -13 33 c -1 3 -5 4 -8 3 c -3 -1 -4 -5 -3 -8 l 14 -33 z m 75 70 c 3 -2 6 0 8 3 c 1 3 -1 6 -4 7 l -32 14 c -3 1 -7 0 -8 -3 c -1 -3 0 -7 3 -8 l 33 -13 z m -153 -37 c 1 3 0 7 -3 8 c -3 1 -7 0 -8 -3 l -13 -33 c -2 -3 0 -6 3 -8 c 3 -1 6 0 8 4 l 13 32 z m 26 -93 c 0 -4 3 -6 6 -6 c 3 0 6 2 6 6 l 0 88 c 0 3 -3 6 -6 6 c -3 0 -6 -3 -6 -6 l 0 -88 z m 35 254 z m 45 -68 c 0 -41 -33 -74 -74 -74 c -11 0 -21 2 -30 6 c 5 3 10 7 15 10 c 15 14 27 32 32 52 c 2 -1 5 -1 7 -2 c 6 -1 11 -2 16 -2 c 13 0 24 4 34 10 z"/>

        <!-- Sun (2/3 visible) -->
        <path id="sun_2_thirds" class="sun" d="M376 338c2,2 2,6 0,8 -3,2 -6,2 -9,0l-37 -37c1,-1 1,-3 1,-4 0,-3 0,-5 -1,-8 0,-1 0,-1 0,-2 1,-1 1,-1 2,-1l44 44zm-58 -41l-13 -14c-2,-2 -2,-6 0,-8 2,-2 6,-2 8,0 2,5 4,11 5,17l0 0 0 0c0,2 0,3 0,5zm-143 -160c2,2 2,6 0,8 -2,2 -6,2 -8,0l-63 -63c-2,-2 -2,-6 0,-8 3,-2 6,-2 9,0l62 63zm251 67c4,0 6,3 6,6 0,3 -2,6 -6,6l-88 0c-4,0 -6,-3 -6,-6 0,-3 2,-6 6,-6l88 0zm-284 0c4,0 6,3 6,6 0,3 -2,6 -6,6l-88 0c-4,0 -6,-3 -6,-6 0,-3 2,-6 6,-6l88 0zm225 -130c3,-2 6,-2 9,0 2,2 2,6 0,8l-63 63c-2,2 -6,2 -8,0 -2,-2 -2,-6 0,-8l62 -63zm-199 200c2,-1 5,-1 7,1 2,2 2,6 0,8l-13 13c1,-7 3,-15 6,-22zm-18 35l-12 12c-6,2 -10,5 -14,9 -4,4 -7,9 -9,14l-1 0 -11 0c-1,-2 -1,-5 1,-6l47 -47c-1,4 -1,9 -1,14 0,1 0,2 0,4zm215 -53c4,1 5,4 4,7 -2,3 -5,5 -8,4l-33 -14c-3,-1 -4,-5 -3,-8 1,-3 5,-4 8,-3l32 14zm-213 -89c3,2 4,5 3,8 -1,3 -5,4 -8,3l-33 -14c-3,-1 -4,-4 -3,-7 1,-3 5,-5 8,-3l33 13zm134 -83c1,-3 4,-4 7,-3 3,1 5,5 3,8l-13 33c-1,3 -5,4 -8,3 -3,-1 -4,-5 -3,-8l14 -33zm-89 214c1,-3 5,-4 8,-3 3,1 4,5 3,8l-14 33c-1,3 -4,4 -7,3 -3,-1 -5,-5 -4,-8l14 -33zm164 -144c3,-2 6,0 8,3 1,3 -1,6 -4,7l-32 14c-3,1 -7,0 -8,-3 -1,-3 0,-7 3,-8l33 -13zm-214 88c3,-1 7,0 8,3 1,3 0,7 -3,8l-33 14c-3,1 -6,-1 -8,-4 -1,-3 0,-6 3,-7l33 -14zm149 89c2,3 0,7 -3,8 -3,1 -6,0 -7,-3l-5 -11c2,-4 2,-9 2,-13 0,-6 -1,-12 -3,-17 1,1 2,2 3,3l13 33zm-88 -214c1,3 0,7 -3,8 -3,1 -7,0 -8,-3l-13 -33c-2,-3 0,-6 3,-8 3,-1 6,0 8,4l13 32zm26 -93c0,-4 3,-6 6,-6 3,0 6,2 6,6l0 88c0,3 -3,6 -6,6 -3,0 -6,-3 -6,-6l0 -88zm0 284c0,-3 3,-6 6,-6 3,0 6,3 6,6l0 35c-2,1 -5,1 -7,1l-5 0 0 -36zm12 48l0 23c0,1 -1,3 -2,4l-4 0 -4 0c-1,-1 -2,-3 -2,-4l0 -23 5 0c2,0 5,0 7,0zm-6 -72c5,0 10,0 14,-1 -4,-3 -10,-4 -15,-4 -3,0 -6,0 -8,1 -2,0 -3,1 -5,1 0,1 1,1 1,1l0 1c4,1 8,1 13,1zm29 -5c12,-6 23,-14 31,-25 -3,-4 -6,-7 -9,-9 -14,-12 -31,-19 -51,-19 -13,0 -26,3 -37,10l0 0c10,8 18,20 21,33 1,0 3,0 4,-1 3,0 7,-1 11,-1 11,0 22,4 30,12zm-77 -37c-2,2 -5,5 -7,7 -2,2 -3,3 -5,5 9,12 21,21 34,26 0,-1 0,-1 0,-1 0,0 0,-1 0,-1 -2,-13 -9,-25 -19,-33 -1,-1 -2,-2 -3,-3zm114 1c5,-10 8,-21 8,-33 0,-41 -33,-74 -74,-74 -41,0 -74,33 -74,74 0,3 0,7 0,10 10,1 18,4 26,8 14,-9 30,-14 48,-14 23,0 43,8 59,22 2,2 5,4 7,7zm-137 -11c1,4 3,8 5,11 1,-1 1,-1 2,-2 2,-2 4,-4 5,-5 -3,-2 -8,-3 -12,-4z"/>

        <!-- Sun behind cumolonimbus -->
        <path id="sun_cumolonimbus" class="sun" d="M175 137c2,2 2,6 0,8 -2,2 -6,2 -8,0l-63 -63c-2,-2 -2,-6 0,-8 3,-2 6,-2 9,0l62 63zm95 5c-9,-4 -19,-6 -30,-6 -41,0 -74,33 -74,74 0,36 26,67 61,73 6,-7 13,-12 20,-16 0,-1 1,-2 1,-3 -6,-7 -12,-16 -15,-25 -5,-11 -7,-23 -6,-35 1,-12 5,-25 12,-35 7,-11 17,-20 31,-27zm-128 62c4,0 6,3 6,6 0,3 -2,6 -6,6l-88 0c-4,0 -6,-3 -6,-6 0,-3 2,-6 6,-6l88 0zm25 71c2,-2 6,-2 8,0 2,2 2,6 0,8l-62 63c-3,2 -6,2 -9,0 -2,-2 -2,-6 0,-8l63 -63zm-15 -108c3,2 4,5 3,8 -1,3 -5,4 -8,3l-33 -14c-3,-1 -4,-4 -3,-7 1,-3 5,-5 8,-3l33 13zm134 -83c1,-3 4,-4 7,-3 3,1 5,5 3,8l-13 33c-1,3 -5,4 -8,3 -3,-1 -4,-5 -3,-8l14 -33zm-89 214c1,-3 5,-4 8,-3 3,1 4,5 3,8l-14 33c-1,3 -4,4 -7,3 -3,-1 -5,-5 -4,-8l14 -33zm-50 -56c3,-1 7,0 8,3 1,3 0,7 -3,8l-33 14c-3,1 -6,-1 -8,-4 -1,-3 0,-6 3,-7l33 -14zm61 -125c1,3 0,7 -3,8 -3,1 -7,0 -8,-3l-13 -33c-2,-3 0,-6 3,-8 3,-1 6,0 8,4l13 32zm26 -93c0,-4 3,-6 6,-6 3,0 6,2 6,6l0 88c0,3 -3,6 -6,6 -3,0 -6,-3 -6,-6l0 -88z"/>

        <!-- Stars -->
        <g class="symbol" id="stars">
            <path class="stars star1" d="M416 59l-7 23m15 -8l-23 -6"/>
            <path class="stars star2" d="M90 105l-12 45m29 -16l-45 -12"/>
            <path class="stars star3" d="M282 13l-12 45m28 -16l-45 -12"/>
            <path class="stars star1" d="M59 58l-6 23m14 -9l-23 -6"/>
            <path class="stars star2" d="M91 332l-12 45m28 -17l-45 -12"/>
            <path class="stars star3" d="M419 135l-12 45m29 -16l-45 -12"/>
        </g>

        <!-- Moon full -->
        <g class="symbol" id="moon_full">
            <path class="moon" d="M254 69c-4,0 -9,0 -14,0 -78,0 -141,63 -141,141 0,78 63,141 141,141 5,0 9,0 13,0 18,-3 14,-21 8,-25 -29,-22 -49,-66 -49,-116 0,-51 20,-94 49,-117 7,-2 9,-21 -7,-24z"/>
            <use xlink:href="#stars" />
        </g>

        <!-- Moon (3 quarter visible) -->
        <g class="symbol" id="moon_3_quarter">
            <path class="moon" d="M254 69c-4,0 -9,0 -14,0 -78,0 -141,63 -141,141 0,78 63,141 141,141 5,0 9,0 13,0 4,-1 6,-2 8,-3 -5,-2 -10,-4 -13,-8l0 0c-6,-5 -9,-13 -9,-21 0,-5 1,-9 3,-12 -19,-25 -30,-59 -30,-97 0,-51 20,-94 49,-117 7,-2 9,-21 -7,-24z"/>
            <use xlink:href="#stars" />
        </g>

        <!-- Moon (half 2/3 visible) -->
        <g class="symbol" id="moon_2_thirds">
            <path class="moon" d="M 254 69 c -4 0 -9 0 -14 0 c -78 0 -141 63 -141 141 c 0 11 1 22 4 33 c 2 -3 4 -6 7 -8 c 12 -13 29 -20 48 -20 c 14 0 27 4 38 11 c 5 -3 11 -6 16 -7 c 0 -3 0 -6 0 -9 c 0 -51 20 -94 49 -117 c 7 -2 9 -21 -7 -24 z"/>
            <use xlink:href="#stars" />
        </g>

        <!-- Moon (half visible) -->
        <g class="symbol" id="moon_half">
            <path class="moon" d="M254 69c-4,0 -9,0 -14,0 -52,0 -97,28 -122,69 13,-6 27,-9 43,-9 23,0 44,8 61,21 9,-24 22,-44 39,-57 7,-2 9,-21 -7,-24zm-102 72c-1,0 -2,0 -2,0 0,0 1,0 2,0z"/>
            <use xlink:href="#stars" />
        </g>

        <!-- Moon behind cumolonimbus -->
        <g class="symbol" id="moon_cumolonimbus">
            <path class="moon" d="M254 69c-4,0 -9,0 -14,0 -78,0 -141,63 -141,141 0,69 49,126 114,139 0,-3 -1,-5 -2,-8 0,-1 0,-2 0,-4 -4,-23 4,-41 15,-53 1,-1 1,-1 1,-2 -9,-20 -15,-45 -15,-72 0,-51 20,-94 49,-117 7,-2 9,-21 -7,-24z"/>
            <use xlink:href="#stars" />
        </g>

        <!-- Cloud -->
        <path id="cloud" class="cloud" d="M332 263c0,-14 -6,-27 -15,-36 -10,-9 -23,-15 -37,-15 -4,0 -9,0 -13,1 -3,1 -5,2 -8,3 0,2 0,3 0,4 0,3 1,5 1,8 0,4 -1,8 -1,12 -1,4 -2,8 -3,12 0,3 -4,5 -7,4 -3,0 -5,-4 -4,-7 1,-3 2,-7 2,-10 0,-4 1,-8 1,-11 0,-3 0,-5 -1,-7 0,-3 0,-5 0,-7l0 0c-4,-21 -15,-40 -30,-53 -15,-13 -35,-20 -56,-20 -25,0 -46,9 -62,25 -16,16 -26,38 -26,62 0,3 1,7 1,11 0,3 1,7 2,10 1,3 -1,7 -4,7 -1,1 -2,1 -3,0 -1,0 -2,0 -4,0 -1,0 -2,0 -3,0 -8,0 -16,3 -21,8 -6,6 -9,13 -9,21 0,9 3,16 9,21 5,6 13,9 21,9l99 0 119 0c14,0 27,-6 37,-15 9,-9 15,-22 15,-37z"/>

        <!-- Cloud small -->
        <path id="cloud_small" class="cloud" d="M448 304c0,-9 -4,-17 -10,-23 -5,-6 -14,-10 -23,-10 -3,0 -5,1 -8,1 -1,1 -3,1 -4,2 0,0 0,0 0,1 0,2 0,3 0,5 0,3 0,6 0,9 -1,3 -1,5 -2,8 -1,3 -4,5 -7,4 -3,0 -5,-4 -4,-7 0,-2 1,-4 1,-7 0,-2 1,-4 1,-7 0,-1 0,-3 -1,-4 0,-2 0,-3 0,-5 0,0 0,0 0,0 -2,-14 -9,-25 -19,-34 -10,-8 -23,-13 -37,-13 -16,0 -30,6 -40,16 -10,10 -17,25 -17,40 0,3 0,5 1,7 0,3 0,5 1,7 1,3 -1,7 -4,7 -1,1 -2,1 -3,0 -1,0 -2,0 -2,0 -1,0 -2,0 -2,0 -5,0 -10,2 -13,5 -3,3 -5,8 -5,13 0,5 2,9 5,13l0 0 0 0c3,3 8,5 13,5l66 0 80 0c9,0 18,-4 23,-10 6,-6 10,-14 10,-23z"/>

        <!-- Large and small cloud -->
        <g class="symbol" id="cloud_large_and_small">
            <path class="cloud" d="M306 218c-8,-4 -17,-6 -26,-6 -4,0 -9,0 -13,1 -3,1 -5,2 -8,3 0,2 0,3 0,4 0,3 1,5 1,8 0,4 -1,8 -1,12 -1,4 -2,8 -3,12 0,3 -4,5 -7,4 -3,0 -5,-4 -4,-7 1,-3 2,-7 2,-10 0,-4 1,-8 1,-11 0,-3 0,-5 -1,-7 0,-3 0,-5 0,-7l0 0c-4,-21 -15,-40 -30,-53 -15,-13 -35,-20 -56,-20 -25,0 -46,9 -62,25 -16,16 -26,38 -26,62 0,3 1,7 1,11 0,3 1,7 2,10 1,3 -1,7 -4,7 -1,1 -2,1 -3,0 -1,0 -2,0 -4,0 -1,0 -2,0 -3,0 -8,0 -16,3 -21,8 -6,6 -9,13 -9,21 0,9 3,16 9,21 5,6 13,9 21,9l99 0 78 0c1,-7 4,-13 9,-17 5,-5 11,-8 19,-9l0 0c0,-3 0,-6 0,-9 0,-19 7,-36 20,-48 5,-6 11,-10 19,-14z"/>
            <path class="cloud" d="M448 304c0,-9 -4,-17 -10,-23 -5,-6 -14,-10 -23,-10 -3,0 -5,1 -8,1 -1,1 -3,1 -4,2 0,0 0,0 0,1 0,2 0,3 0,5 0,3 0,6 0,9 -1,3 -1,5 -2,8 -1,3 -4,5 -7,4 -3,0 -5,-4 -4,-7 0,-2 1,-4 1,-7 0,-2 1,-4 1,-7 0,-1 0,-3 -1,-4 0,-2 0,-3 0,-5 0,0 0,0 0,0 -2,-14 -9,-25 -19,-34 -10,-8 -23,-13 -37,-13 -16,0 -30,6 -40,16 -10,10 -17,25 -17,40 0,3 0,5 1,7 0,3 0,5 1,7 1,3 -1,7 -4,7 -1,1 -2,1 -3,0 -1,0 -2,0 -2,0 -1,0 -2,0 -2,0 -5,0 -10,2 -13,5 -3,3 -5,8 -5,13 0,5 2,9 5,13l0 0 0 0c3,3 8,5 13,5l66 0 80 0c9,0 18,-4 23,-10 6,-6 10,-14 10,-23z"/>
        </g>

        <!-- Cumolonimbus -->
        <path id="cumolonimbus" class="cloud" d="M292 134c66,-110 208,14 113,95 -11,-5 -16,-7 -30,-9 -2,-1 -6,2 -6,5 1,3 4,4 6,6 20,4 63,19 64,77 1,25 -21,66 -57,73l-109 1c-29,-3 -52,-25 -51,-54 1,-48 44,-66 84,-48 4,2 8,-6 6,-9 -7,-8 -37,-13 -48,-9 -60,-56 0,-136 61,-114 6,2 11,-7 6,-10 -3,-2 -12,-4 -17,-5 -13,-2 -22,1 -22,1z"/>

        <!-- Cirrus -->
        <path id="cirrus" class="cirrus" d="M399 61l-1 5c0 14-15 39-36 55s-49 23-76 23h-1c-20 27-56 44-96 51-43 8-91 5-136-9-26-7-28-32 7-22 36 12 83 16 125 8 37-7 69-22 84-46 2-3 6-6 11-5h6c23 0 45-6 62-19 16-12 27-31 28-46v-5c-1-22 23-27 23 4zm-84-28c1 9 1 19-3 35-4 15-12 24-20 33-8 8-18 14-30 18-8 3-16 4-25 4-17 19-41 31-69 36-35 7-75 4-93-5-27-13-18-32 2-23 15 7 53 12 86 5 25-5 46-15 59-32 2-3 6-5 11-5 7 1 15 0 22-3 8-2 15-6 19-11 5-5 12-10 16-20 5-14 3-25 2-37-4-26 19-23 22-2zM214 45c1 3 1 4 1 8 1 12-1 23-7 34s-16 20-30 28h-1c-25 13-63 20-115-5-23-12-12-32 7-20 41 21 76 16 97 4h1c10-5 17-12 21-18 3-6 4-13 4-19 0-5 0-9-1-13-3-25 20-20 23 0z"/>

        <!-- Small and large cloud -->
        <g class="symbol" id="cloud_small_and_large">
            <path class="cloud" d="M395 337c0,-13 -5,-24 -13,-33 -9,-8 -20,-13 -33,-13 -4,0 -8,0 -12,1 -2,1 -5,2 -7,3 0,1 0,1 0,2 1,3 1,5 1,8 0,3 -1,7 -1,11 -1,4 -1,7 -2,11 -1,3 -4,5 -7,4 -4,-1 -5,-4 -5,-7 1,-3 2,-6 2,-10 1,-3 1,-6 1,-9 0,-3 0,-5 0,-7 -1,-2 -1,-4 -1,-6l0 0 0 0c-3,-19 -13,-35 -27,-47 -14,-12 -31,-19 -51,-19 -13,0 -26,3 -37,10l0 0c10,8 18,20 21,33 1,0 3,0 4,-1 3,0 7,-1 11,-1 12,0 23,5 31,13 8,8 13,19 13,32 0,12 -5,23 -13,31 -8,8 -19,13 -31,13l-81 0 -34 0 0 1c0,7 3,14 8,18 5,5 11,8 19,8l89 0 109 0c13,0 24,-5 33,-13 8,-9 13,-20 13,-33zm-203 -95c-2,2 -5,5 -7,7 -15,14 -23,34 -23,56 0,3 0,6 0,9 1,4 1,7 2,10 1,3 -1,6 -4,7 -1,0 -2,0 -3,0 -1,0 -2,0 -3,0 -1,-1 -2,-1 -3,-1 -8,0 -14,3 -19,8 -2,2 -3,4 -5,6l31 0 81 0c9,0 17,-3 23,-9 6,-6 9,-14 9,-23 0,-9 -3,-18 -9,-24 -6,-5 -14,-9 -23,-9 -3,0 -6,0 -8,1 -2,0 -3,1 -5,1 0,1 1,1 1,1 0,2 0,4 0,6 0,2 0,5 -1,8 0,3 -1,6 -1,9 -1,3 -4,5 -8,4 -3,-1 -5,-4 -4,-7 1,-3 1,-5 2,-7 0,-3 0,-5 0,-7 0,-2 0,-3 0,-5 0,-1 -1,-3 -1,-4 0,0 0,-1 0,-1 -2,-13 -9,-25 -19,-33 -1,-1 -2,-2 -3,-3z"/>
            <path class="cloud" d="M271 312c0,-9 -3,-18 -9,-24 -6,-5 -14,-9 -23,-9 -3,0 -6,0 -8,1 -2,0 -3,1 -5,1 0,1 1,1 1,1 0,2 0,4 0,6 0,2 0,5 -1,8 0,3 -1,6 -1,9 -1,3 -4,5 -8,4 -3,-1 -5,-4 -4,-7 1,-3 1,-5 2,-7 0,-3 0,-5 0,-7 0,-2 0,-3 0,-5 0,-1 -1,-3 -1,-4 0,0 0,-1 0,-1 -2,-13 -9,-25 -19,-33 -10,-9 -23,-14 -37,-14 -15,0 -29,6 -40,17 -10,10 -16,24 -16,40 0,2 0,4 0,7 0,2 1,4 1,7 1,3 -1,6 -4,7 -1,0 -2,0 -3,0 -1,0 -1,0 -2,-1 0,0 -1,0 -2,0 -5,0 -9,2 -13,6 -3,3 -5,7 -5,12 0,5 2,10 5,13l0 0 0 0c4,3 8,5 13,5l66 0 81 0c9,0 17,-3 23,-9 6,-6 9,-14 9,-23z"/>
        </g>

        <!-- 3 clouds -->
        <g class="symbol" id="3_clouds">
            <path class="cloud" d="M270 259l-66 0c-11,0 -20,-5 -27,-11 -7,-7 -11,-17 -11,-27 0,-11 4,-21 11,-27 7,-7 16,-12 27,-12l0 0c0,-1 0,-1 0,-2 -1,-4 -1,-8 -1,-12 0,-7 1,-15 3,-22 -14,-7 -29,-11 -45,-11 -52,0 -94,41 -94,93 0,8 1,15 3,23 -2,-1 -5,-1 -8,-1 -20,0 -36,16 -36,35 0,20 16,36 36,36l99 0 78 0c0,-1 0,-1 0,-2 0,-8 3,-16 9,-21 5,-5 11,-8 19,-9l0 0c0,-3 0,-6 0,-9 0,-7 1,-14 3,-21zm42 -43c-9,-7 -20,-10 -32,-10 -10,0 -19,2 -28,7 -3,-24 -17,-45 -36,-60 -1,5 -1,10 -1,15 0,4 0,7 1,10 0,3 1,7 1,10 1,3 -1,6 -4,7 -1,0 -2,0 -3,0 -1,0 -2,-1 -3,-1 -1,0 -2,0 -3,0 -7,0 -14,3 -19,8 -4,5 -7,11 -7,19 0,7 3,13 7,18 5,5 12,8 19,8l48 0 23 0c3,-6 7,-11 12,-15 7,-7 16,-13 25,-16zm-60 31c1,-6 2,-13 2,-19 0,-5 -1,-10 -2,-15l0 34z"/>
            <path class="cloud" d="M449 201c0,-13 -6,-25 -14,-33 -8,-8 -20,-14 -33,-14 -4,0 -8,1 -11,2 -3,0 -5,1 -8,2 1,1 1,2 1,3 0,3 0,5 0,7 0,4 0,8 -1,12 0,3 -1,7 -2,11 -1,3 -4,5 -7,4 -3,-1 -5,-4 -4,-7 1,-3 1,-7 2,-10 0,-3 0,-6 0,-10 0,-2 0,-4 0,-6 0,-2 0,-4 -1,-6l0 0 0 0c-3,-19 -13,-36 -26,-48 -14,-11 -32,-18 -51,-18 -22,0 -42,9 -56,23 -14,14 -23,34 -23,55 0,4 0,7 1,10 0,3 1,7 1,10 1,3 -1,6 -4,7 -1,0 -2,0 -3,0 -1,0 -2,-1 -3,-1 -1,0 -2,0 -3,0 -7,0 -14,3 -19,8 -4,5 -7,11 -7,19 0,7 3,13 7,18 5,5 12,8 19,8l71 0c3,-6 7,-11 12,-15 12,-13 29,-20 48,-20 17,0 32,6 44,16 6,5 12,12 16,19l7 0c13,0 25,-5 33,-14 8,-8 14,-20 14,-32z"/>
            <path class="cloud" d="M448 304c0,-9 -4,-17 -10,-23 -5,-6 -14,-10 -23,-10 -3,0 -5,1 -8,1 -1,1 -3,1 -4,2 0,0 0,0 0,1 0,2 0,3 0,5 0,3 0,6 0,9 -1,3 -1,5 -2,8 -1,3 -4,5 -7,4 -3,0 -5,-4 -4,-7 0,-2 1,-4 1,-7 0,-2 1,-4 1,-7 0,-1 0,-3 -1,-4 0,-2 0,-3 0,-5 0,0 0,0 0,0 -2,-14 -9,-25 -19,-34 -10,-8 -23,-13 -37,-13 -16,0 -30,6 -40,16 -10,10 -17,25 -17,40 0,3 0,5 1,7 0,3 0,5 1,7 1,3 -1,7 -4,7 -1,1 -2,1 -3,0 -1,0 -2,0 -2,0 -1,0 -2,0 -2,0 -5,0 -10,2 -13,5 -3,3 -5,8 -5,13 0,5 2,9 5,13l0 0 0 0c3,3 8,5 13,5l66 0 80 0c9,0 18,-4 23,-10 6,-6 10,-14 10,-23z"/>
        </g>

        <!-- 3 clouds with lightning -->
        <g class="symbol" id="3_clouds_with_lightning">
            <path class="cloud" d="M258 259l-54 0c-11,0 -20,-5 -27,-11 -7,-7 -11,-17 -11,-27 0,-11 4,-21 11,-27 7,-7 16,-12 27,-12l0 0c0,-1 0,-1 0,-2 -1,-4 -1,-8 -1,-12 0,-7 1,-15 3,-22 -14,-7 -29,-11 -45,-11 -52,0 -94,41 -94,93 0,8 1,15 3,23 -2,-1 -5,-1 -8,-1 -20,0 -36,16 -36,35 0,20 16,36 36,36l99 0 78 0c0,-1 0,-1 0,-2 0,-7 2,-14 7,-19l-3 0 15 -41zm20 -53c-9,0 -18,3 -26,7 -3,-24 -17,-45 -36,-60 -1,5 -1,10 -1,15 0,4 0,7 1,10 0,3 1,7 1,10 1,3 -1,6 -4,7 -1,0 -2,0 -3,0 -1,0 -2,-1 -3,-1 -1,0 -2,0 -3,0 -7,0 -14,3 -19,8 -4,5 -7,11 -7,19 0,7 3,13 7,18 5,5 12,8 19,8l48 0 11 0 15 -41zm-26 41c1,-6 2,-13 2,-19 0,-5 -1,-10 -2,-15l0 34z"/>
            <path class="cloud" d="M449 201c0,-13 -6,-25 -14,-33 -8,-8 -20,-14 -33,-14 -4,0 -8,1 -11,2 -3,0 -5,1 -8,2 1,1 1,2 1,3 0,3 0,5 0,7 0,4 0,8 -1,12 0,3 -1,7 -2,11 -1,3 -4,5 -7,4 -3,-1 -5,-4 -4,-7 1,-3 1,-7 2,-10 0,-3 0,-6 0,-10 0,-2 0,-4 0,-6 0,-2 0,-4 -1,-6l0 0 0 0c-3,-19 -13,-36 -26,-48 -14,-11 -32,-18 -51,-18 -22,0 -42,9 -56,23 -14,14 -23,34 -23,55 0,4 0,7 1,10 0,3 1,7 1,10 1,3 -1,6 -4,7 -1,0 -2,0 -3,0 -1,0 -2,-1 -3,-1 -1,0 -2,0 -3,0 -7,0 -14,3 -19,8 -4,5 -7,11 -7,19 0,7 3,13 7,18 5,5 12,8 19,8l59 0 30 -80 78 0 -22 46c12,3 22,8 30,15 6,5 12,12 16,19l7 0c13,0 25,-5 33,-14 8,-8 14,-20 14,-32z"/>
            <path class="cloud" d="M448 304c0,-9 -4,-17 -10,-23 -5,-6 -14,-10 -23,-10 -3,0 -5,1 -8,1 -1,1 -3,1 -4,2 0,0 0,0 0,1 0,2 0,3 0,5 0,3 0,6 0,9 -1,3 -1,5 -2,8 -1,3 -4,5 -7,4 -3,0 -5,-4 -4,-7 0,-2 1,-4 1,-7 0,-2 1,-4 1,-7 0,-1 0,-3 -1,-4 0,-2 0,-3 0,-5 0,0 0,0 0,0 -2,-14 -9,-25 -19,-34 -8,-6 -18,-11 -28,-13l-14 29 50 1 -75 83 30 0 80 0c9,0 18,-4 23,-10 6,-6 10,-14 10,-23zm-170 -3c-1,0 -2,0 -2,0 -1,1 -2,1 -3,0 -1,0 -2,0 -2,0 -1,0 -2,0 -2,0 -5,0 -10,2 -13,5 -3,3 -5,8 -5,13 0,5 2,9 5,13l0 0 0 0c2,2 4,3 7,4l15 -35z"/>
            <polygon class="lightning" transform="translate(150,-5)" points="95,398 148,293 109,293 151,184 203,184 161,268 204,268 "/>
        </g>

        <!-- Large cloud with lightning -->
        <g class="symbol" id="large_cloud_with_lightning">
            <path class="cloud" d="M332 263c0,-14 -6,-27 -15,-36 -10,-9 -23,-15 -37,-15 -4,0 -9,0 -13,1 -3,1 -5,2 -8,3 0,2 0,3 0,4 0,3 1,5 1,8 0,4 -1,8 -1,12 -1,4 -2,8 -3,12 0,3 -4,5 -7,4 -3,0 -5,-4 -4,-7 1,-3 2,-7 2,-10 0,-4 1,-8 1,-11 0,-3 0,-5 -1,-7 0,-3 0,-5 0,-7l0 0c-4,-21 -15,-40 -30,-53 -15,-13 -35,-20 -56,-20 -25,0 -46,9 -62,25 -16,16 -26,38 -26,62 0,3 1,7 1,11 0,3 1,7 2,10 1,3 -1,7 -4,7 -1,1 -2,1 -3,0 -1,0 -2,0 -4,0 -1,0 -2,0 -3,0 -8,0 -16,3 -21,8 -6,6 -9,13 -9,21 0,9 3,16 9,21 5,6 13,9 21,9l61 0 5 -12 -34 -1 48 -130 79 1 -40 83 49 0 -52 59 102 0c14,0 27,-6 37,-15 9,-9 15,-22 15,-37z"/>
            <polygon class="lightning" points="95,398 148,293 109,293 151,184 203,184 161,268 204,268 "/>    
        </g>

        <!-- High cloud -->
        <path id="high_cloud" class="cirrus" d="M374 83l16 9c11 6 20 11 26 15 9 5 11 9 6 12-4 4-12 4-23-3-9-6-17-11-33-20-8 1-18 2-28 3 17 8 33 17 49 26l14 8c5 3 4 6-2 8-6 4-14 1-21-3l-15-8c-18-9-36-19-54-29l-31 3c19 9 38 18 56 28l55 27c4 2 4 6-1 8-6 3-14 3-19 1l-61-30c-21-11-42-21-63-31l-34 3 65 29c20 10 43 19 63 29 5 2 5 6-1 9-5 3-14 3-19 1l-71-32c-25-11-49-22-73-31l-37 3 76 32 49 20c5 2 5 6-1 9s-16 4-22 2l-54-23-87-35-22-10-2-1c-23-11-11-25 12-16l6 2 34-4-6-3-7-4-2-1c-4-2-10-5-18-10-12-6-13-22 20-8h0c9 4 24 12 41 21l41-3c-15-7-31-14-46-22-16-8-32-15-48-23-12-6-4-21 34-2l18 9c15 8 31 15 46 22l24 11 39-2-40-21c-14-7-14-7-20-11-18-11-8-23 36 0l15 8 39 21 35-2-37-21c-11-7-23-14-51-31-24-14-3-23 31 0l35 20c11 7 22 13 49 30zM66 131l75 28 84 32c6 2 6 7-1 10s-17 4-24 2c-30-12-62-24-95-36-13-5-26-9-39-14l-27-10c-23-10-22-30 5-20zm-10 35l94 32c7 2 7 7-1 11-7 3-18 4-25 2l-61-21c-15-6-7-24 15-17zm12 42c8 3 15 5 23 7 7 3 7 8-1 12-6 3-15 4-30 2-35-7-28-31-10-26zM415 70c14 7 17 10 13 14s-10 4-17 1l-95-56c-20-12-4-21 20-6z"/>

        <!-- 5 Raindrops -->
        <g class="symbol" id="raindrops5">
            <line class="raindrop" x1="123" y1="400" x2="130" y2= "344" />
            <line class="raindrop" x1="166" y1="400" x2="172" y2= "344" />
            <line class="raindrop" x1="208" y1="400" x2="215" y2= "344" />
            <line class="raindrop" x1="251" y1="400" x2="255" y2= "366" />
            <line class="raindrop" x1="293" y1="400" x2="297" y2= "366" />
        </g>

        <!-- 3 Raindrops -->
        <g class="symbol" id="raindrops3">
            <line class="raindrop" x1="123" y1="400" x2="130" y2= "344" />
            <line class="raindrop" x1="166" y1="400" x2="172" y2= "344" />
            <line class="raindrop" x1="208" y1="400" x2="215" y2= "344" />
        </g>

        <!-- 2 Raindrops -->
        <g class="symbol" id="raindrops2">
            <line class="raindrop" x1="251" y1="400" x2="255" y2= "366" />
            <line class="raindrop" x1="293" y1="400" x2="297" y2= "366" />
        </g>

        <!-- 2 long raindrops -->
        <g class="symbol" id="raindrops2_long">
            <line class="raindrop" x1="117" y1="400" x2="123" y2="345"/>
            <line class="raindrop" x1="159" y1="400" x2="165" y2="345"/>
	    </g>

        <!-- 4 Snowflakes -->
        <g class="symbol" id="snowflakes4">
            <g class="snowflake">
                <line x1="66" y1="345" x2="57" y2= "393" />
                <line x1="43" y1="353" x2="80" y2= "385" />
                <line x1="38" y1="377" x2="84" y2= "361" />
            </g>
            <g class="snowflake">
                <line x1="217" y1="345" x2="208" y2= "393" />
                <line x1="194" y1="353" x2="231" y2= "385" />
                <line x1="189" y1="377" x2="235" y2= "361" />
            </g>
            <g class="snowflake">
                <line x1="142" y1="366" x2="132" y2= "414" />
                <line x1="118" y1="374" x2="155" y2= "406" />
                <line x1="114" y1="398" x2="160" y2= "382" />
            </g>
            <g class="snowflake">
                <line x1="293" y1="366" x2="284" y2= "414" />
                <line x1="270" y1="374" x2="307" y2= "406" />
                <line x1="265" y1="398" x2="311" y2= "382" />
            </g>
        </g>

        <!-- 3 Snowflakes -->
        <g class="symbol" id="snowflakes3">
            <g class="snowflake">
                <line x1="66" y1="345" x2="57" y2= "393" />
                <line x1="43" y1="353" x2="80" y2= "385" />
                <line x1="38" y1="377" x2="84" y2= "361" />
            </g>
            <g class="snowflake">
                <line x1="217" y1="345" x2="208" y2= "393" />
                <line x1="194" y1="353" x2="231" y2= "385" />
                <line x1="189" y1="377" x2="235" y2= "361" />
            </g>
            <g class="snowflake">
                <line x1="142" y1="366" x2="132" y2= "414" />
                <line x1="118" y1="374" x2="155" y2= "406" />
                <line x1="114" y1="398" x2="160" y2= "382" />
            </g>
        </g>

        <!-- 2 Snowflakes -->
        <g class="symbol" id="snowflakes2">
            <g class="snowflake">
                <line class="fil1 str0" x1="311" y1="366" x2="302" y2= "414" />
                <line class="fil1 str0" x1="288" y1="374" x2="325" y2= "406" />
                <line class="fil1 str0" x1="283" y1="398" x2="329" y2= "382" />
            </g>
            <g class="snowflake">
                <line class="fil1 str0" x1="386" y1="366" x2="377" y2= "414" />
                <line class="fil1 str0" x1="363" y1="374" x2="400" y2= "406" />
                <line class="fil1 str0" x1="359" y1="398" x2="405" y2= "382" />
            </g>
        </g>

        <!-- Snow with rain -->
        <g class="symbol" id="snow_rain">
            <g class="snowflake">
                <line x1="201" y1="345" x2="191" y2= "393" />
                <line x1="177" y1="353" x2="214" y2= "385" />
                <line x1="173" y1="377" x2="219" y2= "361" />
            </g>
            <g class="raindrops">
                <line class="raindrop" x1="129" y1="400" x2="135" y2= "344" />
                <line class="raindrop" x1="86" y1="400" x2="92" y2= "344" />
            </g>
        </g>

        <!-- Fog -->
        <g class="symbol" id="fog">
            <line class="fog" x1="40" x2="460" y1="165" y2="165" style="opacity:0.2" />
            <line class="fog" x1="10" x2="450" y1="190" y2="190" style="opacity:0.3" />
            <line class="fog" x1="20" x2="470" y1="215" y2="215" style="opacity:0.4" />
            <line class="fog" x1="10" x2="455" y1="240" y2="240" style="opacity:0.5" />
            <line class="fog" x1="30" x2="465" y1="265" y2="265" style="opacity:0.6" />
            <line class="fog" x1="20" x2="450" y1="290" y2="290" style="opacity:0.7" />
            <line class="fog" x1="40" x2="470" y1="315" y2="315" style="opacity:0.8" />
            <line class="fog" x1="20" x2="430" y1="340" y2="340" style="opacity:0.9" />
        </g>

        <!-- Haze -->
        <g class="symbol haze" id="haze">
            <path opacity="0.1" d="M440 242c-160,0 -320,0 -430,0 0,-4 0,-7 0,-11 160,0 320,0 430,0 0,4 0,7 0,11z"/>
            <path opacity="0.2" d="M450 263c-160,0 -320,0 -430,0 0,-4 0,-7 0,-11 160,0 320,0 430,0 0,4 0,7 0,11z"/>
            <path opacity="0.3" d="M475 284c-160,0 -320,0 -430,0 0,-4 0,-7 0,-11 160,0 320,0 430,0 0,4 0,7 0,11z"/>
            <path opacity="0.4" d="M460 305c-160,0 -320,0 -430,0 0,-4 0,-7 0,-11 160,0 320,0 430,0 0,4 0,7 0,11z"/>
            <path opacity="0.5" d="M415 326c-160,0 -320,0 -410,0 0,-4 0,-7 0,-11 160,0 320,0 410,0 0,4 0,7 0,11z"/>
            <path opacity="0.6" d="M450 347c-160,0 -320,0 -430,0 0,-4 0,-7 0,-11 160,0 320,0 430,0 0,4 0,7 0,11z"/>
            <path opacity="0.7" d="M470 368c-160,0 -320,0 -400,0 0,-4 0,-7 0,-11 160,0 320,0 400,0 0,4 0,7 0,11z"/>
            <path opacity="0.8" d="M480 389c-160,0 -320,0 -440,0 0,-4 0,-7 0,-11 160,0 320,0 440,0 0,4 0,7 0,11z"/>
            <polygon opacity="0.9" points="460,410 0,410 0,399 460,399 "/>
        </g>
    
    </defs>

    <!-- Do not remove. See CSS comment. -->
    <g id="null"></g>

    <!-- 1 daily day -->
    <g id="01_iday_monochrome">
        <use xlink:href="#sun_full" />
    </g>

    <!-- 2 daily day -->
    <g id="02_iday_monochrome">
        <use xlink:href="#sun_3_quarter" />
        <use xlink:href="#cloud_small" />
    </g>

    <!-- 3 daily day -->
    <g id="03_iday_monochrome">
        <use xlink:href="#sun_half" />
        <use xlink:href="#cloud" class="cloud_large" />
    </g>

    <!-- 4 daily day -->
    <g id="04_iday_monochrome">
        <use xlink:href="#cloud_large_and_small" />
    </g>

    <!-- 5 daily day -->
    <g id="05_iday_monochrome">
        <use xlink:href="#cloud_small_and_large" transform="translate(0,-70)" />
        <use xlink:href="#fog" />
    </g>

    <!-- 6 daily day -->
    <g id="06_iday_monochrome">
        <use xlink:href="#cloud_large_and_small" />
        <use xlink:href="#raindrops5" />
    </g>

    <!-- 7 daily day -->
    <g id="07_iday_monochrome">
        <use xlink:href="#sun_3_quarter" />
        <use xlink:href="#cloud_small" />
        <use xlink:href="#raindrops2" transform="translate(65)" />
    </g>

    <!-- 8 daily day -->
    <g id="08_iday_monochrome">
        <use xlink:href="#sun_half" />
        <use xlink:href="#cloud_large" />
        <use xlink:href="#raindrops2_long" transform="translate(60)" />
        <use xlink:href="#large_cloud_with_lightning" />
    </g>

    <!-- 9 daily day -->
    <g id="09_iday_monochrome">
        <use xlink:href="#cloud_large_and_small" />
        <use xlink:href="#snowflakes4" />
    </g>

    <!-- 10 daily day -->
    <g id="10_iday_monochrome">
        <use xlink:href="#sun_3_quarter" />
        <use xlink:href="#cloud_small" />
        <use xlink:href="#snowflakes2" />
    </g>

    <!-- 11 daily day -->
    <g id="11_iday_monochrome">
        <use xlink:href="#sun_half" />
        <use xlink:href="#cloud_large_and_small" />
        <use xlink:href="#snow_rain" />
    </g>

    <!-- 12 daily day -->
    <g id="12_iday_monochrome">
        <use xlink:href="#cloud_large_and_small" />
        <use xlink:href="#raindrops2_long" />
    </g>

    <!-- 13 daily day -->
    <g id="13_iday_monochrome">
        <use xlink:href="#cloud_large_and_small" />
        <use xlink:href="#snowflakes3" />
    </g>

    <!-- 14 daily day -->
    <g id="14_iday_monochrome">
        <use xlink:href="#sun_half" />
        <use xlink:href="#cloud_large_and_small" />
        <use xlink:href="#raindrops3" />
    </g>

    <!-- 15 daily day -->
    <g id="15_iday_monochrome">
        <use xlink:href="#sun_half" />
        <use xlink:href="#cloud_large_and_small" />
        <use xlink:href="#snowflakes4" />
    </g>

    <!-- 16 daily day -->
    <g id="16_iday_monochrome">
        <use xlink:href="#sun_half" />
        <use xlink:href="#cloud_large_and_small" />
        <use xlink:href="#raindrops2_long" />
    </g>

    <!-- 17 daily day -->
    <g id="17_iday_monochrome">
        <use xlink:href="#sun_half" />
        <use xlink:href="#cloud_large_and_small" />
        <use xlink:href="#snowflakes3" />
    </g>



    <!-- 1 hourly day -->
    <g id="01_day_monochrome">
        <use xlink:href="#sun_full" />
    </g>

    <!-- 2 hourly day -->
    <g id="02_day_monochrome">
        <use xlink:href="#sun_full" />
        <use xlink:href="#cirrus" />
    </g>

    <!-- 3 hourly day -->
    <g id="03_day_monochrome">
        <use xlink:href="#sun_full" />
        <use xlink:href="#high_cloud" />
    </g>

    <!-- 4 hourly day -->
    <g id="04_day_monochrome">
        <use xlink:href="#sun_3_quarter" />
        <use xlink:href="#cloud_small" />
    </g>

    <!-- 5 hourly day -->
    <g id="05_day_monochrome">
        <use xlink:href="#sun_3_quarter" />
        <use xlink:href="#cloud_small" />
        <use xlink:href="#cirrus" />
    </g>

    <!-- 6 hourly day -->
    <g id="06_day_monochrome">
        <use xlink:href="#sun_3_quarter" />
        <use xlink:href="#cloud_small" />
        <use xlink:href="#high_cloud" />
    </g>

    <!-- 7 hourly day -->
    <g id="07_day_monochrome">
        <use xlink:href="#sun_2_thirds" />
        <use xlink:href="#cloud_small_and_large" />
    </g>

    <!-- 8 hourly day -->
    <g id="08_day_monochrome">
        <use xlink:href="#sun_2_thirds" />
        <use xlink:href="#cloud_small_and_large" />
        <use xlink:href="#cirrus" />
    </g>

    <!-- 9 hourly day -->
    <g id="09_day_monochrome">
        <use xlink:href="#sun_2_thirds" />
        <use xlink:href="#cloud_small_and_large" />
        <use xlink:href="#high_cloud" />
    </g>

    <!-- 10 hourly day -->
    <g id="10_day_monochrome">
        <use xlink:href="#sun_cumolonimbus" />
        <use xlink:href="#cumolonimbus" />
    </g>

    <!-- 11 hourly day -->
    <g id="11_day_monochrome">
        <use xlink:href="#sun_cumolonimbus" />
        <use xlink:href="#cumolonimbus" />
        <use xlink:href="#cirrus" />
    </g>

    <!-- 12 hourly day -->
    <g id="12_day_monochrome">
        <use xlink:href="#sun_cumolonimbus" />
        <use xlink:href="#cumolonimbus" />
        <use xlink:href="#high_cloud" />
    </g>

    <!-- 13 hourly day -->
    <g id="13_day_monochrome">
        <use xlink:href="#sun_full" />
        <use xlink:href="#haze" />
    </g>

    <!-- 14 hourly day -->
    <g id="14_day_monochrome">
        <use xlink:href="#sun_full" />
        <use xlink:href="#haze" />
        <use xlink:href="#cirrus" />
    </g>

    <!-- 15 hourly day -->
    <g id="15_day_monochrome">
        <use xlink:href="#sun_full" />
        <use xlink:href="#haze" />
        <use xlink:href="#high_cloud" />
    </g>

    <!-- 16 hourly day -->
    <g id="16_day_monochrome">
        <use xlink:href="#cloud_small_and_large" />
        <use xlink:href="#haze" />
    </g>

    <!-- 17 hourly day -->
    <g id="17_day_monochrome">
        <use xlink:href="#cloud_small_and_large" />
        <use xlink:href="#haze" />
        <use xlink:href="#cirrus" />
    </g>

    <!-- 18 hourly day -->
    <g id="18_day_monochrome">
        <use xlink:href="#cloud_small_and_large" />
        <use xlink:href="#haze" />
        <use xlink:href="#high_cloud" />
    </g>

    <!-- 19 hourly day -->
    <g id="19_day_monochrome">
        <use xlink:href="#sun_half" />
        <use xlink:href="#cloud_large_and_small" />
    </g>

    <!-- 20 hourly day -->
    <g id="20_day_monochrome">
        <use xlink:href="#sun_half" />
        <use xlink:href="#cloud_large_and_small" />
        <use xlink:href="#cirrus" />
    </g>

    <!-- 21 hourly day -->
    <g id="21_day_monochrome">
        <use xlink:href="#sun_half" />
        <use xlink:href="#cloud_large_and_small" />
        <use xlink:href="#high_cloud" />
    </g>
    
    <!-- 22 hourly day -->
    <g id="22_day_monochrome">
        <use xlink:href="#cloud_large_and_small" />
    </g>

    <!-- 23 hourly day -->
    <g id="23_day_monochrome">
        <use xlink:href="#cloud_large_and_small" />
        <use xlink:href="#raindrops3" />
    </g>

    <!-- 24 hourly day -->
    <g id="24_day_monochrome">
        <use xlink:href="#cloud_large_and_small" />
        <use xlink:href="#snowflakes3" />
    </g>

    <!-- 25 hourly day -->
    <g id="25_day_monochrome">
        <use xlink:href="#cloud_large_and_small" />
        <use xlink:href="#raindrops5" />
    </g>

    <!-- 26 hourly day -->
    <g id="26_day_monochrome">
        <use xlink:href="#cloud_large_and_small" />
        <use xlink:href="#snowflakes3" />
        <use xlink:href="#snowflakes2" />
    </g>

    <!-- 27 hourly day -->
    <g id="27_day_monochrome">
        <use xlink:href="#sun_half" />
        <use xlink:href="#cloud_large" />
        <use xlink:href="#raindrops3" transform="translate(60)" />
        <use xlink:href="#large_cloud_with_lightning" />
    </g>

    <!-- 28 hourly day -->
    <g id="28_day_monochrome">
        <use xlink:href="#sun_half" />
        <use xlink:href="#cloud_large" />
        <use xlink:href="#raindrops2_long" transform="translate(70)" />
        <use xlink:href="#large_cloud_with_lightning" />
    </g>

    <!-- 29 hourly day -->
    <g id="29_day_monochrome">
        <use xlink:href="#3_clouds" />
        <use xlink:href="#snowflakes3" />
        <use xlink:href="#snowflakes2" />
    </g>

    <!-- 30 hourly day -->
    <g id="30_day_monochrome">
        <use xlink:href="#3_clouds_with_lightning" />
        <use xlink:href="#raindrops3" />
        <use xlink:href="#raindrops2" transform="translate(50)" />
    </g>

    <!-- 31 hourly day -->
    <g id="31_day_monochrome">
        <use xlink:href="#sun_3_quarter" />
        <use xlink:href="#cloud_small" />
        <use xlink:href="#raindrops2" transform="translate(50)" />
    </g>

    <!-- 32 hourly day -->
    <g id="32_day_monochrome">
        <use xlink:href="#sun_3_quarter" />
        <use xlink:href="#cloud_small" />
        <use xlink:href="#snowflakes2" />
    </g>

    <!-- 33 hourly day -->
    <g id="33_day_monochrome">
        <use xlink:href="#cloud_large_and_small" />
        <use xlink:href="#raindrops2_long" />
    </g>

    <!-- 34 hourly day -->
    <g id="34_day_monochrome">
        <use xlink:href="#cloud_large_and_small" />
        <use xlink:href="#snowflakes2" transform="translate(-180,-20)" />
    </g>

    <!-- 35 hourly day -->
    <g id="35_day_monochrome">
        <use xlink:href="#cloud_large_and_small" />
        <use xlink:href="#snow_rain" transform="translate(20,0)" />
    </g>




    <!-- daily night -->
    <!-- TODO -->



    <!-- 1 hourly night -->
    <g id="01_night_monochrome">
        <use xlink:href="#moon_full" />
    </g>

    <!-- 2 hourly night -->
    <g id="02_night_monochrome">
        <use xlink:href="#moon_full" />
        <use xlink:href="#cirrus" />
    </g>

    <!-- 3 hourly night -->
    <g id="03_night_monochrome">
        <use xlink:href="#moon_full" />
        <use xlink:href="#high_cloud" />
    </g>

    <!-- 4 hourly night -->
    <g id="04_night_monochrome">
        <use xlink:href="#moon_3_quarter" />
        <use xlink:href="#cloud_small" />
    </g>

    <!-- 5 hourly night -->
    <g id="05_night_monochrome">
        <use xlink:href="#moon_3_quarter" />
        <use xlink:href="#cloud_small" />
        <use xlink:href="#cirrus" />
    </g>

    <!-- 6 hourly night -->
    <g id="06_night_monochrome">
        <use xlink:href="#moon_3_quarter" />
        <use xlink:href="#cloud_small" />
        <use xlink:href="#high_cloud" />
    </g>

    <!-- 7 hourly night -->
    <g id="07_night_monochrome">
        <use xlink:href="#moon_2_thirds" />
        <use xlink:href="#cloud_small_and_large" />
    </g>

    <!-- 8 hourly night -->
    <g id="08_night_monochrome">
        <use xlink:href="#moon_2_thirds" />
        <use xlink:href="#cloud_small_and_large" />
        <use xlink:href="#cirrus" />
    </g>

    <!-- 9 hourly night -->
    <g id="09_night_monochrome">
        <use xlink:href="#moon_2_thirds" />
        <use xlink:href="#cloud_small_and_large" />
        <use xlink:href="#high_cloud" />
    </g>

    <!-- 10 hourly night -->
    <g id="10_night_monochrome">
        <use xlink:href="#moon_cumolonimbus" />
        <use xlink:href="#cumolonimbus" />
    </g>

    <!-- 11 hourly night -->
    <g id="11_night_monochrome">
        <use xlink:href="#moon_cumolonimbus" />
        <use xlink:href="#cumolonimbus" />
        <use xlink:href="#cirrus" />
    </g>

    <!-- 12 hourly night -->
    <g id="12_night_monochrome">
        <use xlink:href="#moon_cumolonimbus" />
        <use xlink:href="#cumolonimbus" />
        <use xlink:href="#high_cloud" />
    </g>

    <!-- 13 hourly night -->
    <g id="13_night_monochrome">
        <use xlink:href="#moon_full" />
        <use xlink:href="#haze" />
    </g>

    <!-- 14 hourly night -->
    <g id="14_night_monochrome">
        <use xlink:href="#moon_full" />
        <use xlink:href="#haze" />
        <use xlink:href="#cirrus" />
    </g>

    <!-- 15 hourly night -->
    <g id="15_night_monochrome">
        <use xlink:href="#moon_full" />
        <use xlink:href="#haze" />
        <use xlink:href="#high_cloud" />
    </g>

    <!-- 16 hourly night -->
    <g id="16_night_monochrome">
        <use xlink:href="#cloud_small_and_large" />
        <use xlink:href="#haze" />
    </g>

    <!-- 17 hourly night -->
    <g id="17_night_monochrome">
        <use xlink:href="#cloud_small_and_large" />
        <use xlink:href="#haze" />
        <use xlink:href="#cirrus" />
    </g>

    <!-- 18 hourly night -->
    <g id="18_night_monochrome">
        <use xlink:href="#cloud_small_and_large" />
        <use xlink:href="#haze" />
        <use xlink:href="#high_cloud" />
    </g>

    <!-- 19 hourly night -->
    <g id="19_night_monochrome">
        <use xlink:href="#moon_half" />
        <use xlink:href="#cloud_large_and_small" />
    </g>

    <!-- 20 hourly night -->
    <g id="20_night_monochrome">
        <use xlink:href="#moon_half" />
        <use xlink:href="#cloud_large_and_small" />
        <use xlink:href="#cirrus" />
    </g>

    <!-- 21 hourly night -->
    <g id="21_night_monochrome">
        <use xlink:href="#moon_half" />
        <use xlink:href="#cloud_large_and_small" />
        <use xlink:href="#high_cloud" />
    </g>
    
    <!-- 22 hourly night -->
    <g id="22_night_monochrome">
        <use xlink:href="#cloud_large_and_small" />
    </g>

    <!-- 23 hourly night -->
    <g id="23_night_monochrome">
        <use xlink:href="#cloud_large_and_small" />
        <use xlink:href="#raindrops3" />
    </g>

    <!-- 24 hourly night -->
    <g id="24_night_monochrome">
        <use xlink:href="#cloud_large_and_small" />
        <use xlink:href="#snowflakes3" />
    </g>

    <!-- 25 hourly night -->
    <g id="25_night_monochrome">
        <use xlink:href="#cloud_large_and_small" />
        <use xlink:href="#raindrops5" />
    </g>

    <!-- 26 hourly night -->
    <g id="26_night_monochrome">
        <use xlink:href="#cloud_large_and_small" />
        <use xlink:href="#snowflakes3" />
        <use xlink:href="#snowflakes2" />
    </g>

    <!-- 27 hourly night -->
    <g id="27_night_monochrome">
        <use xlink:href="#moon_half" />
        <use xlink:href="#cloud_large" />
        <use xlink:href="#raindrops3" transform="translate(60)" />
        <use xlink:href="#large_cloud_with_lightning" />
    </g>

    <!-- 28 hourly night -->
    <g id="28_night_monochrome">
        <use xlink:href="#moon_half" />
        <use xlink:href="#cloud_large" />
        <use xlink:href="#raindrops2_long" transform="translate(70)" />
        <use xlink:href="#large_cloud_with_lightning" />
    </g>

    <!-- 29 hourly night -->
    <g id="29_night_monochrome">
        <use xlink:href="#3_clouds" />
        <use xlink:href="#snowflakes3" />
        <use xlink:href="#snowflakes2" />
    </g>

    <!-- 30 hourly night -->
    <g id="30_night_monochrome">
        <use xlink:href="#3_clouds_with_lightning" />
        <use xlink:href="#raindrops3" />
        <use xlink:href="#raindrops2" transform="translate(50)" />
    </g>

    <!-- 31 hourly night -->
    <g id="31_night_monochrome">
        <use xlink:href="#moon_3_quarter" />
        <use xlink:href="#cloud_small" />
        <use xlink:href="#raindrops2" transform="translate(50)" />
    </g>

    <!-- 32 hourly night -->
    <g id="32_night_monochrome">
        <use xlink:href="#moon_3_quarter" />
        <use xlink:href="#cloud_small" />
        <use xlink:href="#snowflakes2" />
    </g>

    <!-- 33 hourly night -->
    <g id="33_night_monochrome">
        <use xlink:href="#cloud_large_and_small" />
        <use xlink:href="#raindrops2_long" />
    </g>

    <!-- 34 hourly night -->
    <g id="34_night_monochrome">
        <use xlink:href="#cloud_large_and_small" />
        <use xlink:href="#snowflakes2" transform="translate(-180,-20)" />
    </g>

    <!-- 35 hourly night -->
    <g id="35_night_monochrome">
        <use xlink:href="#cloud_large_and_small" />
        <use xlink:href="#snow_rain" transform="translate(20,0)" />
    </g>

</svg>
