<svg xmlns="http://www.w3.org/2000/svg" xmlns:xlink="http://www.w3.org/1999/xlink" style="shape-rendering:geometricPrecision;fill-rule:evenodd;clip-rule:evenodd" height="420" width="480" xml:space="preserve"><defs><g id="a" style="display:initial!important"><path d="m416 59-7 23m15-8-23-6" style="stroke:#fff;stroke-width:8.85827;stroke-linecap:round;stroke-linejoin:round;fill:#fff"/><path d="m90 105-12 45m29-16-45-12" style="stroke:#fff;stroke-width:5.90551;stroke-linecap:round;stroke-linejoin:round;fill:#fff"/><path d="m282 13-12 45m28-16-45-12" style="stroke:#fff;stroke-width:2.95276;stroke-linecap:round;stroke-linejoin:round;fill:#fff"/><path d="m59 58-6 23m14-9-23-6" style="stroke:#fff;stroke-width:8.85827;stroke-linecap:round;stroke-linejoin:round;fill:#fff"/><path d="m91 332-12 45m28-17-45-12" style="stroke:#fff;stroke-width:5.90551;stroke-linecap:round;stroke-linejoin:round;fill:#fff"/><path d="m419 135-12 45m29-16-45-12" style="stroke:#fff;stroke-width:2.95276;stroke-linecap:round;stroke-linejoin:round;fill:#fff"/></g><g id="b" style="display:initial!important"><path d="M253 75h-13c-37 0-71 15-96 39-24 25-39 59-39 96s15 71 39 96c25 24 59 39 96 39h13c3-1 5-2 6-3s1-2 1-3c1-2 0-3 0-5-1-1-1-2-2-2l-1-1c-15-12-28-29-37-51-9-20-14-44-14-70s5-50 14-70c9-22 22-39 38-51l1-1s0-1 1-1v-5c0-1 0-3-1-4s-3-2-6-3zm-6-12c3 0 5 0 8 1 6 1 10 3 13 7 2 3 4 6 4 10 0 3 0 7-1 10-2 3-4 6-7 7-14 11-25 27-33 46-8 20-13 42-13 66s5 46 13 66c8 19 19 35 33 46 3 1 5 4 7 8 1 3 1 7 1 10 0 4-2 7-5 10s-7 6-13 6c-2 1-5 1-7 1h-7c-41 0-77-16-104-43s-43-63-43-104 16-77 43-104 63-43 104-43h7z" style="fill:#fff"/><use xlink:href="#a"/></g></defs><use xlink:href="#b"/></svg>