<svg xmlns="http://www.w3.org/2000/svg" xmlns:xlink="http://www.w3.org/1999/xlink" style="shape-rendering:geometricPrecision;fill-rule:evenodd;clip-rule:evenodd" height="420" width="480" xml:space="preserve"><defs><g id="a" style="display:initial!important"><path d="M395 337c0-13-5-24-13-33-9-8-20-13-33-13-4 0-8 0-12 1-2 1-5 2-7 3v2c1 3 1 5 1 8s-1 7-1 11c-1 4-1 7-2 11-1 3-4 5-7 4-4-1-5-4-5-7 1-3 2-6 2-10 1-3 1-6 1-9v-7c-1-2-1-4-1-6-3-19-13-35-27-47s-31-19-51-19c-8 0-15 1-22 3-3-3-6-6-10-9 10-4 21-6 32-6 23 0 43 8 59 22 14 12 24 28 29 47 2-1 4-2 6-2 5-2 10-2 15-2 16 0 30 6 41 17 10 10 17 25 17 41s-7 30-17 41c-11 10-25 17-41 17H151c-11 0-20-4-27-11-6-6-10-13-11-21h12c1 5 4 9 7 12 5 5 11 8 19 8h198c13 0 24-5 33-13 8-9 13-20 13-33zm-77-45z" style="fill:#fff"/><path d="M271 307c0-9-3-17-9-23s-14-10-23-10c-3 0-6 1-9 1-1 1-2 1-4 2v1c1 1 1 3 1 5 0 3 0 6-1 8 0 3-1 6-1 9-1 3-4 5-8 4-3-1-5-4-4-7 1-2 1-5 1-7 1-2 1-5 1-7v-5c0-1-1-3-1-4-2-14-9-26-19-34-10-9-23-14-37-14-15 0-30 7-40 17s-16 24-16 40v7c0 2 1 5 1 7 1 3-1 6-4 7h-7c-5 0-10 2-13 5s-5 8-5 13 2 9 5 12c3 4 8 6 13 6h147c9 0 17-4 23-10s9-14 9-23zm-1-32c8 8 13 20 13 32s-5 23-13 31-19 13-31 13H92c-8 0-16-3-21-8-6-6-9-13-9-21 0-9 3-16 9-21 5-5 12-9 19-9v-9c0-19 7-36 20-48 12-13 29-20 48-20 17 0 33 6 45 16 10 9 18 20 21 34 1-1 2-1 4-1 3-1 7-2 11-2 12 0 23 5 31 13z" style="fill:#fff"/></g><g id="b" style="display:initial!important"><path style="opacity:.2;stroke:#fff;stroke-width:12" d="M40 165h420"/><path style="opacity:.3;stroke:#fff;stroke-width:12" d="M10 190h440"/><path style="opacity:.4;stroke:#fff;stroke-width:12" d="M20 215h450"/><path style="opacity:.5;stroke:#fff;stroke-width:12" d="M10 240h445"/><path style="opacity:.6;stroke:#fff;stroke-width:12" d="M30 265h435"/><path style="opacity:.7;stroke:#fff;stroke-width:12" d="M20 290h430"/><path style="opacity:.8;stroke:#fff;stroke-width:12" d="M40 315h430"/><path style="opacity:.9;stroke:#fff;stroke-width:12" d="M20 340h410"/></g></defs><use transform="translate(0 -70)" xlink:href="#a"/><use xlink:href="#b"/></svg>