<svg xmlns="http://www.w3.org/2000/svg" xmlns:xlink="http://www.w3.org/1999/xlink" style="shape-rendering:geometricPrecision;fill-rule:evenodd;clip-rule:evenodd" height="420" width="480" xml:space="preserve"><defs><g id="a" style="display:initial!important"><path d="m416 59-7 23m15-8-23-6" style="stroke:#fff;stroke-width:8.85827;stroke-linecap:round;stroke-linejoin:round;fill:#fff"/><path d="m90 105-12 45m29-16-45-12" style="stroke:#fff;stroke-width:5.90551;stroke-linecap:round;stroke-linejoin:round;fill:#fff"/><path d="m282 13-12 45m28-16-45-12" style="stroke:#fff;stroke-width:2.95276;stroke-linecap:round;stroke-linejoin:round;fill:#fff"/><path d="m59 58-6 23m14-9-23-6" style="stroke:#fff;stroke-width:8.85827;stroke-linecap:round;stroke-linejoin:round;fill:#fff"/><path d="m91 332-12 45m28-17-45-12" style="stroke:#fff;stroke-width:5.90551;stroke-linecap:round;stroke-linejoin:round;fill:#fff"/><path d="m419 135-12 45m29-16-45-12" style="stroke:#fff;stroke-width:2.95276;stroke-linecap:round;stroke-linejoin:round;fill:#fff"/></g><g id="b" style="display:initial!important"><path d="M253 75h-13c-37 0-71 15-96 39-1 2-2 3-4 4-6 2-13 4-19 6 4-6 9-12 15-18 27-27 63-43 104-43h7c3 0 5 0 8 1 6 1 10 3 13 7 2 3 4 6 4 10 0 3 0 7-1 10-2 3-4 6-7 7-13 11-24 26-32 45-4-3-7-5-10-8 9-19 21-35 36-46l1-1s0-1 1-1v-5c0-1 0-3-1-4s-3-2-6-3z" style="fill:#fff"/><use xlink:href="#a"/></g><g id="c" style="display:initial!important"><path d="M289 213c-3-1-6-1-9-1-4 0-9 0-13 1-3 1-5 2-8 3v4c0 3 1 5 1 8 0 4-1 8-1 12l-3 12c0 3-4 5-7 4-3 0-5-4-4-7s2-7 2-10c0-4 1-8 1-11s0-5-1-7v-7c-4-21-15-40-30-53s-35-20-56-20c-25 0-46 9-62 25s-26 38-26 62c0 3 1 7 1 11 0 3 1 7 2 10s-1 7-4 7c-1 1-2 1-3 0h-7c-8 0-16 3-21 8-6 6-9 13-9 21 0 9 3 16 9 21 5 6 13 9 21 9h164c-1 1-1 3-1 4 0 3 1 5 1 8H62c-12 0-22-5-30-12-7-8-12-18-12-30 0-11 5-22 12-29 8-8 18-12 30-12h1c0-1-1-3-1-4 0-4-1-8-1-12 0-28 12-52 29-70 18-18 43-29 71-29 24 0 46 9 64 23 15 14 27 32 32 52 2-1 5-1 7-2 6-1 11-2 16-2 9 0 17 2 24 5-5 2-10 4-15 8z" style="fill:#fff"/><path d="M447 273c8 8 13 19 13 31s-5 24-13 32-19 13-32 13H269c-9 0-16-4-21-9-6-5-9-13-9-21s3-16 9-21c5-5 11-8 19-9v-9c0-19 7-36 20-48 12-13 29-20 48-20 17 0 32 6 44 16 11 9 18 21 22 34 1 0 2-1 3-1 4-1 8-1 11-1 13 0 24 5 32 13zm1 31c0-9-4-17-10-23-5-6-14-10-23-10-3 0-5 1-8 1-1 1-3 1-4 2v15c-1 3-1 5-2 8s-4 5-7 4c-3 0-5-4-4-7 0-2 1-4 1-7 0-2 1-4 1-7 0-1 0-3-1-4v-5c-2-14-9-25-19-34-10-8-23-13-37-13-16 0-30 6-40 16s-17 25-17 40c0 3 0 5 1 7 0 3 0 5 1 7 1 3-1 7-4 7-1 1-2 1-3 0h-4c-5 0-10 2-13 5s-5 8-5 13 2 9 5 13c3 3 8 5 13 5h146c9 0 18-4 23-10 6-6 10-14 10-23z" style="fill:#fff"/></g><path style="stroke-width:12;stroke-linecap:round;stroke:#fff" d="m123 400 7-56m36 56 6-56m36 56 7-56" id="d"/></defs><use xlink:href="#b"/><use xlink:href="#c"/><use xlink:href="#d"/></svg>