<svg xmlns="http://www.w3.org/2000/svg" xmlns:xlink="http://www.w3.org/1999/xlink" style="shape-rendering:geometricPrecision;fill-rule:evenodd;clip-rule:evenodd" height="420" width="480" xml:space="preserve"><defs><g id="a" style="display:initial!important"><path d="M395 337c0-13-5-24-13-33-9-8-20-13-33-13-4 0-8 0-12 1-2 1-5 2-7 3v2c1 3 1 5 1 8s-1 7-1 11c-1 4-1 7-2 11-1 3-4 5-7 4-4-1-5-4-5-7 1-3 2-6 2-10 1-3 1-6 1-9v-7c-1-2-1-4-1-6-3-19-13-35-27-47s-31-19-51-19c-13 0-26 3-37 10 10 8 18 20 21 33 1 0 3 0 4-1 3 0 7-1 11-1 12 0 23 5 31 13s13 19 13 32c0 12-5 23-13 31s-19 13-31 13H124v1c0 7 3 14 8 18 5 5 11 8 19 8h198c13 0 24-5 33-13 8-9 13-20 13-33zm-203-95-7 7c-15 14-23 34-23 56v9c1 4 1 7 2 10s-1 6-4 7h-6c-1-1-2-1-3-1-8 0-14 3-19 8-2 2-3 4-5 6h112c9 0 17-3 23-9s9-14 9-23-3-18-9-24c-6-5-14-9-23-9-3 0-6 0-8 1-2 0-3 1-5 1 0 1 1 1 1 1v6c0 2 0 5-1 8 0 3-1 6-1 9-1 3-4 5-8 4-3-1-5-4-4-7s1-5 2-7v-12c0-1-1-3-1-4v-1c-2-13-9-25-19-33l-3-3z" style="fill:#fff"/><path d="M271 312c0-9-3-18-9-24-6-5-14-9-23-9-3 0-6 0-8 1-2 0-3 1-5 1 0 1 1 1 1 1v6c0 2 0 5-1 8 0 3-1 6-1 9-1 3-4 5-8 4-3-1-5-4-4-7s1-5 2-7v-12c0-1-1-3-1-4v-1c-2-13-9-25-19-33-10-9-23-14-37-14-15 0-29 6-40 17-10 10-16 24-16 40v7c0 2 1 4 1 7 1 3-1 6-4 7h-3c-1 0-1 0-2-1h-2c-5 0-9 2-13 6-3 3-5 7-5 12s2 10 5 13c4 3 8 5 13 5h147c9 0 17-3 23-9s9-14 9-23z" style="fill:#fff"/></g><g id="b" style="display:initial!important"><path style="opacity:.2;stroke:#fff;stroke-width:12" d="M40 165h420"/><path style="opacity:.3;stroke:#fff;stroke-width:12" d="M10 190h440"/><path style="opacity:.4;stroke:#fff;stroke-width:12" d="M20 215h450"/><path style="opacity:.5;stroke:#fff;stroke-width:12" d="M10 240h445"/><path style="opacity:.6;stroke:#fff;stroke-width:12" d="M30 265h435"/><path style="opacity:.7;stroke:#fff;stroke-width:12" d="M20 290h430"/><path style="opacity:.8;stroke:#fff;stroke-width:12" d="M40 315h430"/><path style="opacity:.9;stroke:#fff;stroke-width:12" d="M20 340h410"/></g></defs><use transform="translate(0 -70)" xlink:href="#a"/><use xlink:href="#b"/></svg>