<?xml version="1.0" encoding="utf-8"?>
<!-- Generator: Adobe Illustrator 26.3.1, SVG Export Plug-In . SVG Version: 6.00 Build 0)  -->
<svg version="1.1" id="Layer_1" xmlns="http://www.w3.org/2000/svg" xmlns:xlink="http://www.w3.org/1999/xlink" x="0px" y="0px"
	 viewBox="0 0 48 48" style="enable-background:new 0 0 48 48;" xml:space="preserve">
<style type="text/css">
	.st0{fill:none;stroke:#000000;stroke-width:2;stroke-miterlimit:10;}
	.st1{fill:#DADADA;stroke:#324E6C;stroke-width:2;stroke-miterlimit:10;}
	.st2{fill:#DADADA;stroke:#324E6C;stroke-width:2;stroke-linecap:round;stroke-miterlimit:10;}
</style>
<path class="st0" d="M27.6,32.3c-8.8,0-16.5-6.7-16.5-15.5S19,1.1,27.8,1.1c2.2,0-6.6,6.9-6.5,15C21.4,24,30.3,32.3,27.6,32.3z"/>
<path class="st1" d="M18.1,26.5c0,2.4,2.1,4.5,6.4,4.5c2.5,0,4.7-0.6,6.1-1.6c0.8,0.8,1.9,1.3,3.1,1.3c2.5,0,4.5-2.1,4.5-4.7
	c0-2.6-2-4.7-4.5-4.7c-0.6,0-1.2,0.1-1.7,0.3c-0.2-2.1-2.2-3.8-4.6-3.8c-2.6,0-4.6,1.8-4.6,4.1c0,0.2,0,0.5,0.1,0.7
	C19.4,23,18.1,24.5,18.1,26.5z"/>
<path class="st2" d="M25.9,24.6l-0.1-0.2c-0.6-0.9-1.5-1.5-2.5-1.7l-0.5-0.1"/>
</svg>
