<?xml version="1.0" encoding="utf-8"?>
<!-- Generator: Adobe Illustrator 26.3.1, SVG Export Plug-In . SVG Version: 6.00 Build 0)  -->
<svg version="1.1" id="Layer_1" xmlns="http://www.w3.org/2000/svg" xmlns:xlink="http://www.w3.org/1999/xlink" x="0px" y="0px"
	 viewBox="0 0 48 48" style="enable-background:new 0 0 48 48;" xml:space="preserve">
<style type="text/css">
	.st0{fill:none;stroke:#000000;stroke-width:2;stroke-miterlimit:10;}
	.st1{fill:#324E6C;stroke:#324E6C;stroke-miterlimit:10;}
</style>
<path class="st0" d="M29.3,32.5c-8.8,0-16.5-6.7-16.5-15.5S20.7,1.3,29.5,1.3c2.2,0-6.6,6.9-6.5,15C23.1,24.2,32,32.5,29.3,32.5z"/>
<rect x="23.2" y="-3.2" transform="matrix(-1.836970e-16 1 -1 -1.836970e-16 43.3274 -4.6726)" class="st1" width="1.6" height="45.2"/>
<rect x="23.6" y="3.1" transform="matrix(-1.836970e-16 1 -1 -1.836970e-16 48.1941 -0.6139)" class="st1" width="1.6" height="41.3"/>
<rect x="23.1" y="10.3" transform="matrix(-1.836970e-16 1 -1 -1.836970e-16 53.644 4.4164)" class="st1" width="3.1" height="37.5"/>
</svg>
