<?xml version="1.0" encoding="utf-8"?>
<!-- Generator: Adobe Illustrator 26.3.1, SVG Export Plug-In . SVG Version: 6.00 Build 0)  -->
<svg version="1.1" id="Layer_1" xmlns="http://www.w3.org/2000/svg" xmlns:xlink="http://www.w3.org/1999/xlink" x="0px" y="0px"
	 viewBox="0 0 48 48" style="enable-background:new 0 0 48 48;" xml:space="preserve">
<style type="text/css">
	.st0{fill:#F2EA1C;stroke:#848585;stroke-width:0.5;stroke-miterlimit:10;}
	.st1{fill:#F2EA1C;stroke:#F6AC21;stroke-miterlimit:10;}
	.st2{fill:#6783BD;stroke:#497CBC;stroke-miterlimit:10;}
</style>
<rect x="22.5" y="0.4" transform="matrix(-0.2462 0.9692 -0.9692 -0.2462 46.0205 -2.7725)" class="st0" width="3.1" height="32.3"/>
<rect x="22.5" y="0.4" transform="matrix(0.5 0.866 -0.866 0.5 26.3428 -12.6059)" class="st0" width="3.1" height="32.3"/>
<rect x="22.5" y="0.4" transform="matrix(0.9692 0.2462 -0.2462 0.9692 4.8054 -5.4215)" class="st0" width="3.1" height="32.3"/>
<rect x="22.5" y="0.4" transform="matrix(0.8364 -0.5482 0.5482 0.8364 -5.1089 15.9064)" class="st0" width="3.1" height="32.3"/>
<ellipse class="st1" cx="24.1" cy="16.5" rx="8.1" ry="7.8"/>
<rect x="23.2" y="-0.8" transform="matrix(-1.836970e-16 1 -1 -1.836970e-16 45.7929 -2.2071)" class="st2" width="1.6" height="45.2"/>
<rect x="23.6" y="5.6" transform="matrix(-1.836970e-16 1 -1 -1.836970e-16 50.6596 1.8516)" class="st2" width="1.6" height="41.3"/>
<rect x="23" y="12.7" transform="matrix(-1.836970e-16 1 -1 -1.836970e-16 56.069 6.9224)" class="st2" width="3.1" height="37.6"/>
</svg>
