<?xml version="1.0" encoding="utf-8"?>
<!-- Generator: Adobe Illustrator 26.3.1, SVG Export Plug-In . SVG Version: 6.00 Build 0)  -->
<svg version="1.1" id="Layer_1" xmlns="http://www.w3.org/2000/svg" xmlns:xlink="http://www.w3.org/1999/xlink" x="0px" y="0px"
	 viewBox="0 0 48 48" style="enable-background:new 0 0 48 48;" xml:space="preserve">
<style type="text/css">
	.st0{fill:none;stroke:#000000;stroke-width:2;stroke-miterlimit:10;}
	.st1{fill:#DADADA;stroke:#324E6C;stroke-width:2;stroke-miterlimit:10;}
	.st2{fill:#2B5DAB;stroke:#A74399;stroke-width:3;stroke-linecap:square;stroke-linejoin:round;stroke-miterlimit:10;}
</style>
<path class="st0" d="M25.4,32.4c-8.8,0-16.5-6.7-16.5-15.5S16.8,1.2,25.6,1.2c2.2,0-6.6,6.9-6.5,15C19.2,24.1,28.1,32.4,25.4,32.4z"
	/>
<path class="st1" d="M16.3,24.8c0,2.8,2.6,5.4,7.7,5.4c3,0,5.6-0.8,7.3-2c1,1,2.3,1.5,3.7,1.5c3,0,5.5-2.6,5.5-5.7
	c0-3.2-2.4-5.7-5.5-5.7c-0.7,0-1.4,0.1-2,0.4c-0.2-2.5-2.6-4.5-5.6-4.5c-3.1,0-5.6,2.2-5.6,4.9c0,0.3,0,0.6,0.1,0.9
	C17.8,20.5,16.3,22.4,16.3,24.8z"/>
<polyline class="st2" points="29.8,23.3 23.8,33.4 29.9,31.1 24.8,40 "/>
</svg>
