<?xml version="1.0" encoding="utf-8"?>
<!-- Generator: Adobe Illustrator 26.3.1, SVG Export Plug-In . SVG Version: 6.00 Build 0)  -->
<svg version="1.1" id="Layer_1" xmlns="http://www.w3.org/2000/svg" xmlns:xlink="http://www.w3.org/1999/xlink" x="0px" y="0px"
	 viewBox="0 0 48 48" style="enable-background:new 0 0 48 48;" xml:space="preserve">
<style type="text/css">
	.st0{fill:none;stroke:#314E6C;stroke-miterlimit:10;}
	.st1{fill:#DADADA;stroke:#324E6C;stroke-width:2;stroke-miterlimit:10;}
	.st2{fill:#F8F7F7;stroke:#324E6C;stroke-width:2;stroke-linecap:round;stroke-miterlimit:10;}
	.st3{fill:#F8F7F7;stroke:#324E6C;stroke-width:2;stroke-miterlimit:10;}
</style>
<line class="st0" x1="16.7" y1="31.3" x2="22.2" y2="35.9"/>
<line class="st0" x1="22.2" y1="31.4" x2="16.7" y2="35.8"/>
<line class="st0" x1="19.2" y1="30" x2="19.7" y2="37.1"/>
<line class="st0" x1="22.3" y1="39.2" x2="27.4" y2="43.5"/>
<line class="st0" x1="27.5" y1="39.3" x2="22.2" y2="43.4"/>
<line class="st0" x1="24.6" y1="38" x2="25.1" y2="44.6"/>
<line class="st0" x1="28.5" y1="32.6" x2="33.8" y2="37.2"/>
<line class="st0" x1="33.9" y1="32.7" x2="28.4" y2="37.1"/>
<line class="st0" x1="30.9" y1="31.4" x2="31.4" y2="38.5"/>
<path class="st1" d="M45.5,20.8c0,5.9-5.1,10.7-11.4,10.7c-4.4,0-8.3-2.3-10.2-5.8c-0.2,0-0.5,0-0.8,0c-0.2,0-0.5,0-0.7-0.1
	c-1.7,2.7-5.4,4.5-9.7,4.5c-5.9,0-9.2-3.8-9.2-8c0-4.3,3.3-7.5,9.2-7.5c0.9,0,1.7,0.1,2.6,0.2c0.6-5.1,4.7-9,9.3-8.6
	c2.8,0.2,5.2,1.9,6.6,4.3c0.9-0.2,1.9-0.3,2.9-0.3C40.4,10.1,45.5,14.9,45.5,20.8z"/>
<path class="st2" d="M42,25.5c0,3.3-3,6.3-9,6.3c-3.4,0-6.5-0.9-8.5-2.3c-1.1,1.1-2.6,1.8-4.3,1.8c-3.5,0-6.4-3-6.4-6.6
	c0-3.7,2.8-6.6,6.4-6.6c0.8,0,1.6,0.2,2.3,0.5c0.2-3,3.1-5.3,6.5-5.3c3.6,0,6.5,2.6,6.5,5.7c0,0.3,0,0.7-0.1,1
	C40.3,20.5,42,22.6,42,25.5z"/>
<path class="st3" d="M17.9,18l-0.1-0.4c-0.3-1-0.9-1.9-1.9-2.4l-0.7-0.4"/>
<line class="st2" x1="30.5" y1="12.7" x2="31.2" y2="10.5"/>
<path class="st2" d="M31.1,22.7l0.2-0.2c0.8-1.2,2.1-2.1,3.5-2.4l0.7-0.2"/>
<line class="st0" x1="11.5" y1="37.9" x2="16.6" y2="42.2"/>
<line class="st0" x1="16.7" y1="38" x2="11.4" y2="42.1"/>
<line class="st0" x1="13.6" y1="36.8" x2="14.1" y2="43.4"/>
</svg>
