<?xml version="1.0" encoding="utf-8"?>
<!-- Generator: Adobe Illustrator 26.3.1, SVG Export Plug-In . SVG Version: 6.00 Build 0)  -->
<svg version="1.1" id="Layer_1" xmlns="http://www.w3.org/2000/svg" xmlns:xlink="http://www.w3.org/1999/xlink" x="0px" y="0px"
	 viewBox="0 0 48 48" style="enable-background:new 0 0 48 48;" xml:space="preserve">
<style type="text/css">
	.st0{fill:#F2EA1C;stroke:#848585;stroke-width:0.5;stroke-miterlimit:10;}
	.st1{fill:#F2EA1C;stroke:#F6AC21;stroke-miterlimit:10;}
	.st2{fill:none;stroke:#555555;stroke-miterlimit:10;}
	.st3{fill:#F8F7F7;stroke:#2B5DAB;stroke-width:2;stroke-miterlimit:10;}
	.st4{fill:#F8F7F7;stroke:#2B5DAB;stroke-width:2;stroke-linecap:round;stroke-miterlimit:10;}
</style>
<rect x="18.1" y="0.5" transform="matrix(-0.2462 0.9692 -0.9692 -0.2462 40.5333 1.6687)" class="st0" width="3.1" height="32.3"/>
<rect x="18.1" y="0.5" transform="matrix(0.5 0.866 -0.866 0.5 24.1825 -8.6908)" class="st0" width="3.1" height="32.3"/>
<rect x="18.1" y="0.5" transform="matrix(0.9692 0.2462 -0.2462 0.9692 4.6891 -4.3183)" class="st0" width="3.1" height="32.3"/>
<rect x="18.1" y="0.5" transform="matrix(0.8364 -0.5482 0.5482 0.8364 -5.888 13.4699)" class="st0" width="3.1" height="32.3"/>
<ellipse class="st1" cx="19.6" cy="16.6" rx="8.1" ry="7.8"/>
<line class="st2" x1="35.5" y1="33.2" x2="40.6" y2="37.5"/>
<line class="st2" x1="40.7" y1="33.3" x2="35.5" y2="37.4"/>
<line class="st2" x1="37.8" y1="32" x2="38.3" y2="38.7"/>
<line class="st2" x1="27.8" y1="34.2" x2="33.1" y2="38.8"/>
<line class="st2" x1="33.2" y1="34.3" x2="27.7" y2="38.7"/>
<line class="st2" x1="30.2" y1="32.9" x2="30.7" y2="40"/>
<path class="st3" d="M20.2,24.9c0,2.8,2.5,5.2,7.5,5.2c2.9,0,5.4-0.7,7.1-1.9c0.9,0.9,2.2,1.5,3.6,1.5c2.9,0,5.3-2.5,5.3-5.5
	c0-3.1-2.4-5.5-5.3-5.5c-0.7,0-1.4,0.1-2,0.4c-0.2-2.5-2.6-4.4-5.4-4.4c-3,0-5.4,2.1-5.4,4.8c0,0.3,0,0.6,0.1,0.8
	C21.6,20.7,20.2,22.5,20.2,24.9z"/>
<path class="st4" d="M29.3,22.6l-0.1-0.2c-0.7-1-1.7-1.7-2.9-2l-0.6-0.1"/>
</svg>
