<?xml version="1.0" encoding="utf-8"?>
<!-- Generator: Adobe Illustrator 26.3.1, SVG Export Plug-In . SVG Version: 6.00 Build 0)  -->
<svg version="1.1" id="Layer_1" xmlns="http://www.w3.org/2000/svg" xmlns:xlink="http://www.w3.org/1999/xlink" x="0px" y="0px"
	 viewBox="0 0 48 48" style="enable-background:new 0 0 48 48;" xml:space="preserve">
<style type="text/css">
	.st0{fill:none;stroke:#555555;stroke-miterlimit:10;}
	.st1{fill:#6B81C0;stroke:#497CBC;stroke-miterlimit:10;}
	.st2{fill:#DDDBDB;stroke:#2B5DAB;stroke-width:2;stroke-miterlimit:10;}
	.st3{fill:#F8F7F7;stroke:#2B5DAB;stroke-width:2;stroke-miterlimit:10;}
	.st4{fill:#F8F7F7;stroke:#2B5DAB;stroke-width:2;stroke-linecap:round;stroke-miterlimit:10;}
</style>
<line class="st0" x1="29.9" y1="33.7" x2="34.6" y2="38.4"/>
<line class="st0" x1="35" y1="34.2" x2="29.5" y2="37.9"/>
<line class="st0" x1="32.3" y1="32.7" x2="32.2" y2="39.4"/>
<line class="st0" x1="16.4" y1="30.6" x2="21.8" y2="35.2"/>
<line class="st0" x1="21.9" y1="30.7" x2="16.3" y2="35.1"/>
<line class="st0" x1="18.8" y1="29.3" x2="19.3" y2="36.4"/>
<rect x="26.1" y="34.3" transform="matrix(0.9884 0.152 -0.152 0.9884 6.1919 -3.6366)" class="st1" width="1.6" height="8.8"/>
<rect x="21.6" y="36.2" transform="matrix(0.9884 0.152 -0.152 0.9884 6.4367 -2.9311)" class="st1" width="1.6" height="8.8"/>
<path class="st2" d="M45,20.7c0,5.9-5.1,10.7-11.4,10.7c-4.4,0-8.3-2.3-10.2-5.8c-0.2,0-0.5,0-0.8,0c-0.2,0-0.5,0-0.7-0.1
	c-1.7,2.7-5.4,4.5-9.7,4.5C6.3,30,3,26.3,3,22c0-4.3,3.3-7.5,9.2-7.5c0.9,0,1.7,0.1,2.6,0.2c0.6-5.1,4.7-9,9.3-8.6
	c2.8,0.2,5.2,1.9,6.6,4.3c0.9-0.2,1.9-0.3,2.9-0.3C39.9,10.1,45,14.8,45,20.7z"/>
<path class="st3" d="M41.5,25.5c0,3.3-3,6.3-9,6.3c-3.4,0-6.5-0.9-8.5-2.3c-1.1,1.1-2.6,1.8-4.3,1.8c-3.5,0-6.4-3-6.4-6.6
	c0-3.7,2.8-6.6,6.4-6.6c0.8,0,1.6,0.2,2.3,0.5c0.2-3,3.1-5.3,6.5-5.3c3.6,0,6.5,2.6,6.5,5.7c0,0.3,0,0.7-0.1,1
	C39.8,20.5,41.5,22.6,41.5,25.5z"/>
<path class="st2" d="M17.4,18l-0.1-0.4c-0.3-1-0.9-1.9-1.9-2.4l-0.7-0.4"/>
<line class="st2" x1="30" y1="12.6" x2="30.7" y2="10.4"/>
<path class="st4" d="M30.6,22.7l0.2-0.2c0.8-1.2,2.1-2.1,3.5-2.4l0.7-0.2"/>
</svg>
