<?xml version="1.0" encoding="utf-8"?>
<!-- Generator: Adobe Illustrator 26.3.1, SVG Export Plug-In . SVG Version: 6.00 Build 0)  -->
<svg version="1.1" id="Layer_1" xmlns="http://www.w3.org/2000/svg" xmlns:xlink="http://www.w3.org/1999/xlink" x="0px" y="0px"
	 viewBox="0 0 48 48" style="enable-background:new 0 0 48 48;" xml:space="preserve">
<style type="text/css">
	.st0{fill:none;stroke:#000000;stroke-width:2;stroke-miterlimit:10;}
	.st1{fill:#DADADA;stroke:#324E6C;stroke-width:2;stroke-miterlimit:10;}
	.st2{fill:#DADADA;stroke:#324E6C;stroke-width:2;stroke-linecap:round;stroke-miterlimit:10;}
	.st3{fill:#314E6C;stroke:#314E6C;stroke-miterlimit:10;}
</style>
<path class="st0" d="M24,32.2c-8.8,0-16.5-6.7-16.5-15.5S15.4,1.1,24.2,1.1c2.2,0-6.6,6.9-6.5,15C17.8,24,26.7,32.2,24,32.2z"/>
<path class="st1" d="M42.7,25.5c0,3.4-3.1,6.5-9.3,6.5c-3.6,0-6.7-0.9-8.8-2.4c-1.2,1.1-2.7,1.8-4.5,1.8c-3.6,0-6.6-3.1-6.6-6.8
	c0-3.8,2.9-6.9,6.6-6.9c0.9,0,1.7,0.2,2.4,0.5c0.3-3,3.2-5.5,6.7-5.5c3.7,0,6.7,2.6,6.7,5.9c0,0.4,0,0.7-0.1,1
	C40.9,20.3,42.7,22.5,42.7,25.5z"/>
<path class="st2" d="M31.4,22.6l0.2-0.2c0.8-1.3,2.1-2.1,3.6-2.5l0.7-0.2"/>
<rect x="31.7" y="35.2" transform="matrix(0.9884 0.152 -0.152 0.9884 6.5927 -4.4615)" class="st3" width="1.6" height="11.4"/>
<rect x="16.7" y="35.2" transform="matrix(0.9884 0.152 -0.152 0.9884 6.2237 -2.2005)" class="st3" width="1.6" height="8.8"/>
<rect x="21.4" y="34.8" transform="matrix(0.9884 0.152 -0.152 0.9884 6.4502 -2.8965)" class="st3" width="1.6" height="12"/>
<rect x="26.3" y="35.8" transform="matrix(0.9884 0.152 -0.152 0.9884 6.4218 -3.6596)" class="st3" width="1.6" height="8.8"/>
</svg>
