<?xml version="1.0" encoding="utf-8"?>
<!-- Generator: Adobe Illustrator 26.3.1, SVG Export Plug-In . SVG Version: 6.00 Build 0)  -->
<svg version="1.1" id="Layer_1" xmlns="http://www.w3.org/2000/svg" xmlns:xlink="http://www.w3.org/1999/xlink" x="0px" y="0px"
	 viewBox="0 0 48 48" style="enable-background:new 0 0 48 48;" xml:space="preserve">
<style type="text/css">
	.st0{fill:none;stroke:#314E6C;stroke-miterlimit:10;}
	.st1{fill:none;stroke:#000000;stroke-width:2;stroke-miterlimit:10;}
	.st2{fill:#DADADA;stroke:#324E6C;stroke-width:2;stroke-miterlimit:10;}
	.st3{fill:#DADADA;stroke:#324E6C;stroke-width:2;stroke-linecap:round;stroke-miterlimit:10;}
</style>
<line class="st0" x1="20.7" y1="32.8" x2="26.2" y2="37.4"/>
<line class="st0" x1="26.2" y1="32.9" x2="20.6" y2="37.3"/>
<line class="st0" x1="23.2" y1="31.5" x2="23.7" y2="38.6"/>
<line class="st0" x1="26.3" y1="40.7" x2="31.4" y2="45"/>
<line class="st0" x1="31.5" y1="40.8" x2="26.2" y2="44.9"/>
<line class="st0" x1="28.6" y1="39.5" x2="29.1" y2="46.1"/>
<line class="st0" x1="32.5" y1="34.1" x2="37.8" y2="38.7"/>
<line class="st0" x1="37.9" y1="34.2" x2="32.4" y2="38.6"/>
<line class="st0" x1="34.9" y1="32.9" x2="35.4" y2="40"/>
<line class="st0" x1="15.5" y1="39.4" x2="20.6" y2="43.7"/>
<line class="st0" x1="20.7" y1="39.5" x2="15.4" y2="43.6"/>
<line class="st0" x1="17.6" y1="38.3" x2="18.1" y2="44.9"/>
<path class="st1" d="M23.5,32.2C14.7,32.2,7,25.5,7,16.7S14.9,1,23.8,1c2.2,0-6.6,6.9-6.5,15C17.4,23.9,26.3,32.2,23.5,32.2z"/>
<path class="st2" d="M42.3,25.4c0,3.4-3.1,6.5-9.3,6.5c-3.6,0-6.7-0.9-8.8-2.4c-1.2,1.1-2.7,1.8-4.5,1.8c-3.6,0-6.6-3.1-6.6-6.8
	c0-3.8,2.9-6.9,6.6-6.9c0.9,0,1.7,0.2,2.4,0.5c0.3-3,3.2-5.5,6.7-5.5c3.7,0,6.7,2.6,6.7,5.9c0,0.4,0,0.7-0.1,1
	C40.5,20.3,42.3,22.5,42.3,25.4z"/>
<path class="st3" d="M31,22.6l0.2-0.2c0.8-1.3,2.1-2.1,3.6-2.5l0.7-0.2"/>
</svg>
