<?xml version="1.0" encoding="utf-8"?>
<!-- Generator: Adobe Illustrator 26.3.1, SVG Export Plug-In . SVG Version: 6.00 Build 0)  -->
<svg version="1.1" id="Layer_1" xmlns="http://www.w3.org/2000/svg" xmlns:xlink="http://www.w3.org/1999/xlink" x="0px" y="0px"
	 viewBox="0 0 48 48" style="enable-background:new 0 0 48 48;" xml:space="preserve">
<style type="text/css">
	.st0{fill:none;stroke:#555555;stroke-miterlimit:10;}
	.st1{fill:#F2EA1C;stroke:#848585;stroke-width:0.5;stroke-miterlimit:10;}
	.st2{fill:#F2EA1C;stroke:#F6AC21;stroke-miterlimit:10;}
	.st3{fill:#DADADA;stroke:#2B5DAB;stroke-width:2;stroke-miterlimit:10;}
	.st4{fill:#848585;stroke:#2B5DAB;stroke-width:2;stroke-linecap:round;stroke-miterlimit:10;}
</style>
<line class="st0" x1="10" y1="34.1" x2="15.4" y2="38.7"/>
<line class="st0" x1="15.5" y1="34.2" x2="9.9" y2="38.6"/>
<line class="st0" x1="12.5" y1="32.8" x2="13" y2="39.9"/>
<line class="st0" x1="15.6" y1="42" x2="20.6" y2="46.3"/>
<line class="st0" x1="20.7" y1="42.1" x2="15.5" y2="46.2"/>
<line class="st0" x1="17.9" y1="40.8" x2="18.3" y2="47.5"/>
<line class="st0" x1="21.8" y1="35.4" x2="27.1" y2="40.1"/>
<line class="st0" x1="27.2" y1="35.5" x2="21.7" y2="39.9"/>
<line class="st0" x1="24.2" y1="34.2" x2="24.7" y2="41.3"/>
<line class="st0" x1="4.8" y1="40.7" x2="9.8" y2="45"/>
<line class="st0" x1="9.9" y1="40.8" x2="4.7" y2="44.9"/>
<line class="st0" x1="6.9" y1="39.6" x2="7.4" y2="46.2"/>
<rect x="26.7" y="0.4" transform="matrix(-0.2462 0.9692 -0.9692 -0.2462 51.2757 -6.7427)" class="st1" width="3.1" height="32.3"/>
<rect x="26.7" y="0.4" transform="matrix(0.5 0.866 -0.866 0.5 28.4793 -16.1893)" class="st1" width="3.1" height="32.3"/>
<rect x="26.7" y="0.4" transform="matrix(0.9692 0.2462 -0.2462 0.9692 4.9481 -6.4465)" class="st1" width="3.1" height="32.3"/>
<rect x="26.7" y="0.4" transform="matrix(0.8364 -0.5482 0.5482 0.8364 -4.4584 18.2028)" class="st1" width="3.1" height="32.3"/>
<ellipse class="st2" cx="28.3" cy="16.6" rx="8.1" ry="7.8"/>
<path class="st3" d="M31.5,28.2c0,3.1-2.8,5.9-8.4,5.9c-3.2,0-6.1-0.8-8-2.1c-1.1,1-2.5,1.7-4,1.7c-3.3,0-5.9-2.8-5.9-6.2
	c0-3.4,2.7-6.2,5.9-6.2c0.8,0,1.5,0.2,2.2,0.4c0.2-2.8,2.9-4.9,6.1-4.9c3.4,0,6.1,2.4,6.1,5.4c0,0.3,0,0.6-0.1,0.9
	C29.9,23.5,31.5,25.5,31.5,28.2z"/>
<path class="st4" d="M21.3,25.6l0.1-0.2c0.8-1.1,1.9-1.9,3.3-2.3l0.7-0.2"/>
</svg>
