<?xml version="1.0" encoding="utf-8"?>
<!-- Generator: Adobe Illustrator 26.3.1, SVG Export Plug-In . SVG Version: 6.00 Build 0)  -->
<svg version="1.1" id="Layer_1" xmlns="http://www.w3.org/2000/svg" xmlns:xlink="http://www.w3.org/1999/xlink" x="0px" y="0px"
	 viewBox="0 0 48 48" style="enable-background:new 0 0 48 48;" xml:space="preserve">
<style type="text/css">
	.st0{fill:#324E6C;stroke:#324E6C;stroke-miterlimit:10;}
	.st1{fill:none;stroke:#000000;stroke-width:2;stroke-miterlimit:10;}
	.st2{fill:#DADADA;stroke:#324E6C;stroke-width:2;stroke-miterlimit:10;}
	.st3{fill:#DADADA;stroke:#324E6C;stroke-width:2;stroke-linecap:round;stroke-miterlimit:10;}
</style>
<rect x="32.2" y="34.2" transform="matrix(0.9884 0.152 -0.152 0.9884 6.2588 -4.5745)" class="st0" width="1.6" height="8.8"/>
<rect x="26.3" y="33.6" transform="matrix(0.9884 0.152 -0.152 0.9884 6.1539 -3.6711)" class="st0" width="1.6" height="9.6"/>
<path class="st1" d="M24.2,32.3c-8.8,0-16.5-6.7-16.5-15.5S15.6,1.1,24.4,1.1c2.2,0-6.6,6.9-6.5,15C18,24,26.9,32.3,24.2,32.3z"/>
<path class="st2" d="M14.5,25.8c0,2.8,2.6,5.4,7.7,5.4c3,0,5.6-0.8,7.3-2c1,1,2.3,1.5,3.7,1.5c3,0,5.5-2.6,5.5-5.7
	c0-3.2-2.4-5.7-5.5-5.7c-0.7,0-1.4,0.1-2,0.4c-0.2-2.5-2.6-4.5-5.6-4.5c-3.1,0-5.6,2.2-5.6,4.9c0,0.3,0,0.6,0.1,0.9
	C16,21.5,14.5,23.4,14.5,25.8z"/>
<path class="st3" d="M23.9,23.4l-0.1-0.2c-0.7-1-1.8-1.8-3-2.1L20.1,21"/>
</svg>
