<?xml version="1.0" encoding="utf-8"?>
<!-- Generator: Adobe Illustrator 26.3.1, SVG Export Plug-In . SVG Version: 6.00 Build 0)  -->
<svg version="1.1" id="Layer_1" xmlns="http://www.w3.org/2000/svg" xmlns:xlink="http://www.w3.org/1999/xlink" x="0px" y="0px"
	 viewBox="0 0 48 48" style="enable-background:new 0 0 48 48;" xml:space="preserve">
<style type="text/css">
	.st0{fill:none;stroke:#000000;stroke-width:2;stroke-miterlimit:10;}
	.st1{fill:none;stroke:#324E6C;stroke-miterlimit:10;}
	.st2{fill:#DADADA;stroke:#324E6C;stroke-width:2;stroke-miterlimit:10;}
	.st3{fill:#F8F7F7;stroke:#324E6C;stroke-width:2;stroke-linecap:round;stroke-miterlimit:10;}
</style>
<path class="st0" d="M24.3,32.2c-8.8,0-16.5-6.7-16.5-15.5S15.7,1.1,24.5,1.1c2.2,0-6.6,6.9-6.5,15C18.1,23.9,27,32.2,24.3,32.2z"/>
<line class="st1" x1="30.3" y1="33.4" x2="35.4" y2="37.7"/>
<line class="st1" x1="35.4" y1="33.5" x2="30.2" y2="37.6"/>
<line class="st1" x1="32.6" y1="32.3" x2="33.1" y2="38.9"/>
<line class="st1" x1="21.5" y1="35.9" x2="26.9" y2="40.5"/>
<line class="st1" x1="27" y1="36" x2="21.4" y2="40.4"/>
<line class="st1" x1="24" y1="34.7" x2="24.4" y2="41.8"/>
<path class="st2" d="M40.2,24c0-3.4-2.6-6.2-5.9-6.2c-0.8,0-1.5,0.2-2.2,0.4c-0.2-2.7-2.8-4.9-6-4.9c-3.3,0-6,2.4-6,5.3
	c0,0.3,0,0.6,0.1,0.9c-4.5,0.6-6.1,2.5-6.1,5.2c0,3.1,2.8,5.8,8.3,5.8c3.2,0,6-0.8,7.9-2.1c1,1,2.5,1.7,4,1.7
	C37.5,30.2,40.2,27.4,40.2,24"/>
<path class="st3" d="M24.2,22.2L24,22c-0.8-1.1-1.9-1.9-3.2-2.2l-0.7-0.2"/>
</svg>
